<svg id="Layer_1" data-name="Layer 1" xmlns="http://www.w3.org/2000/svg" viewBox="0 0 426.23 278.66"><defs><style>.cls-1{fill:#fff;}.cls-2{fill:#002f3d;}.cls-3{fill:#8ee900;}.cls-4{fill:#002f3c;}.cls-5{fill:#89e200;}.cls-6{fill:#8be400;}.cls-7{fill:#00c2ef;}</style></defs><path class="cls-1" d="M256.34,13.5v70h-79v-70h79m2.5-7.5h-84a5,5,0,0,0-5,5V86a5,5,0,0,0,5,5h84a5,5,0,0,0,5-5V11a5,5,0,0,0-5-5Z"/><rect class="cls-2" x="176.84" y="13" width="80" height="71" rx="2"/><path class="cls-3" d="M263.42,82.42c9.78,1,19.6.23,29.4.41,7.33.14,8.36,1,7.73,8.08q-4,44.47-8.09,89c-.85,9.15-6.31,14-15.57,14q-59.44.06-118.87,0c-9.3,0-14.55-4.84-15.4-14.07q-4.2-45.21-8.31-90.43c-.43-4.71,1-6.37,5.79-6.52,10-.31,19.94.54,29.9-.45"/><path class="cls-2" d="M208.35,92.09c19.5,0,39,.1,58.48-.08,4.28,0,5.82.43,5.29,5.56-2.79,27.32-5.08,54.69-7.4,82.06-.29,3.43-1.2,4.89-5,4.88q-50.48-.22-101,0c-4.84,0-6.71-1.79-7.12-6.67q-3.42-40.8-7.42-81.55c-.34-3.4.33-4.25,3.69-4.23C168,92.16,188.19,92.09,208.35,92.09Z"/><path class="cls-4" d="M286.39,92.19c4.2-1,4.65,1.2,4.32,4.66-2.22,23.35-4.31,46.72-6.46,70.08-.4,4.31-.69,8.63-1.33,12.91a5.74,5.74,0,0,1-7.85,4.49c-2.35-.87-1.37-2.82-1.25-4.24q2-22.89,4.12-45.74c1.17-12.59,2.56-25.16,3.49-37.77C281.7,92.94,282.65,91.3,286.39,92.19Z"/><path class="cls-3" d="M208,143a37.43,37.43,0,0,1-36.86-35c-.2-3.32.58-6.38,4.38-6.58s4.79,2.65,5.07,6c1.26,15.33,12.63,26,27.52,26.08s26.49-10.77,27.64-25.93c.25-3.34,1.16-6.33,4.94-6.18,4.13.17,4.74,3.43,4.46,6.94A37.31,37.31,0,0,1,208,143Z"/><path class="cls-5" d="M194.37,161.28c-.58,3-2.05,4.92-5,4.7a4.28,4.28,0,0,1-4.22-4.65c.09-2.86,1.88-4.51,4.91-4.38C192.89,157.08,193.91,159,194.37,161.28Z"/><path class="cls-6" d="M208,156.88c3,.28,4.63,1.62,4.69,4.4.07,3-1.7,4.73-4.55,4.69s-4.53-1.84-4.4-4.84C203.86,158.3,205.68,157.16,208,156.88Z"/><path class="cls-5" d="M227.25,157a4.08,4.08,0,0,1,4,4.41,4.29,4.29,0,0,1-4.75,4.61c-2.94-.12-4.55-2.16-4.35-5C222.37,158.39,224.1,156.86,227.25,157Z"/><path class="cls-1" d="M43,229.63v3.58a29,29,0,0,0-14.5-4.13,18.31,18.31,0,0,0-13,31q5.1,5.13,13.86,5.14a24.15,24.15,0,0,0,11.22-2.52V251.63H32V249H43.79v15.67a33.4,33.4,0,0,1-14.54,3.46,22.19,22.19,0,0,1-15.89-6,21,21,0,0,1-.12-30,21.86,21.86,0,0,1,15.72-6A33.87,33.87,0,0,1,43,229.63Z"/><path class="cls-1" d="M55.06,226.67V265H75.31v2.64H51.9V226.67Z"/><path class="cls-1" d="M100,226.15a21.31,21.31,0,0,1,15.39,6.1,20.69,20.69,0,0,1,0,29.77,22.37,22.37,0,0,1-30.73,0,20.78,20.78,0,0,1,0-29.77A21.18,21.18,0,0,1,100,226.15Zm.11,39A17.6,17.6,0,0,0,113,260a18.28,18.28,0,0,0,0-25.66,17.6,17.6,0,0,0-12.91-5.23,17.83,17.83,0,0,0-13,5.23,18.13,18.13,0,0,0,0,25.66A17.83,17.83,0,0,0,100.09,265.2Z"/><path class="cls-1" d="M154.32,226.67v2.64H139V267.6h-3.19V229.31H120.43v-2.64Z"/><path class="cls-1" d="M190.77,226.67a14,14,0,0,1,9.17,2.93,9.15,9.15,0,0,1,3.54,7.33,8.48,8.48,0,0,1-1.48,4.95,10,10,0,0,1-4.29,3.4v.35a11.79,11.79,0,0,1,6.67,3.82,10.14,10.14,0,0,1,2.38,6.7,10.94,10.94,0,0,1-1.74,6.08,10.75,10.75,0,0,1-4.83,4,18.09,18.09,0,0,1-7.28,1.35H175.77V226.67Zm-2.11,17a7.54,7.54,0,0,0,5-1.5,5.08,5.08,0,0,0,1.82-4.16,4.64,4.64,0,0,0-1.67-3.76,6.65,6.65,0,0,0-4.4-1.4h-5.68v10.82Zm1.84,17.75q4,0,6.07-1.51a5.15,5.15,0,0,0,2.05-4.44,4.83,4.83,0,0,0-2-4.11,8.93,8.93,0,0,0-5.46-1.51h-7.44v11.57Z"/><path class="cls-1" d="M234.19,226.67l18.07,40.93h-8.35l-4.25-10H221.47l-3.95,10h-8.3l16.88-40.93Zm-10.32,25h13.22l-6.92-16.2Z"/><path class="cls-1" d="M290.73,226.67l-23.85,34.75h24v6.18H253.29l23.82-34.75H254.72v-6.18Z"/><path class="cls-1" d="M317.59,226.67l18.08,40.93h-8.35l-4.25-10H304.88l-4,10h-8.29l16.88-40.93Zm-10.31,25H320.5l-6.92-16.2Z"/><path class="cls-1" d="M361.22,226.67l18.07,40.93h-8.35l-4.24-10H348.5l-3.95,10h-8.29l16.87-40.93Zm-10.31,25h13.21l-6.92-16.2Z"/><path class="cls-1" d="M398.83,226.67a13.73,13.73,0,0,1,9.41,3.2,10.56,10.56,0,0,1,3.63,8.32,10.41,10.41,0,0,1-1.8,6.08,11.91,11.91,0,0,1-5.35,4.08,12,12,0,0,1,3.49,2.87,36.33,36.33,0,0,1,3.78,6.13q3.75,7.44,5.57,10.25h-8.82a46.71,46.71,0,0,1-2.46-4.31,96,96,0,0,0-5-8.8,11.93,11.93,0,0,0-3.05-3.22,6,6,0,0,0-3.37-1H392V267.6H384.1V226.67Zm-1.78,17.46a7.15,7.15,0,0,0,4.88-1.55,5.35,5.35,0,0,0,1.77-4.25,5,5,0,0,0-1.76-4.2,7.88,7.88,0,0,0-5-1.39H392v11.39Z"/><rect class="cls-7" x="205.84" y="30" width="21.5" height="8" rx="2"/><rect class="cls-7" x="197.84" y="45.5" width="37" height="8" rx="2"/><rect class="cls-7" x="186.84" y="61" width="59" height="8" rx="2"/></svg>