<svg id="Layer_1" data-name="Layer 1" xmlns="http://www.w3.org/2000/svg" viewBox="0 0 800 600"><defs><style>.cls-1{fill:#002f3d;}.cls-2{fill:#fff;}.cls-3{fill:#8ee900;}.cls-4{fill:#002f3c;}.cls-5{fill:#89e200;}.cls-6{fill:#8be400;}.cls-7{fill:#00c2ef;}</style></defs><path class="cls-1" d="M400,.09Q597.7.09,795.41,0c3.75,0,4.59.84,4.59,4.59q-.16,295.41,0,590.82c0,3.75-.84,4.59-4.59,4.59Q400,599.85,4.59,600C.84,600,0,599.16,0,595.41Q.17,300,0,4.59C0,.84.84,0,4.59,0Q202.31.17,400,.09Z"/><path class="cls-2" d="M438.63,176.41v70h-79v-70h79m2.5-7.5h-84a5,5,0,0,0-5,5v75a5,5,0,0,0,5,5h84a5,5,0,0,0,5-5v-75a5,5,0,0,0-5-5Z"/><rect class="cls-1" x="359.13" y="175.91" width="80" height="71" rx="2"/><path class="cls-3" d="M445.71,245.34c9.79,1,19.6.23,29.4.41,7.33.13,8.36,1,7.73,8.07q-4,44.49-8.08,88.95c-.86,9.15-6.32,14-15.58,14q-59.43.07-118.87,0c-9.29,0-14.54-4.84-15.4-14.06q-4.2-45.23-8.31-90.44c-.43-4.71,1-6.37,5.79-6.52,10-.31,19.95.54,29.9-.44"/><path class="cls-1" d="M390.65,255c19.49,0,39,.11,58.48-.08,4.28,0,5.81.43,5.29,5.57-2.79,27.31-5.08,54.68-7.4,82.05-.3,3.43-1.21,4.9-5,4.88q-50.48-.23-101,0c-4.84,0-6.71-1.79-7.12-6.67q-3.42-40.8-7.42-81.55c-.33-3.4.33-4.25,3.69-4.23C350.33,255.07,370.49,255,390.65,255Z"/><path class="cls-4" d="M468.68,255.11c4.2-1,4.65,1.2,4.33,4.65-2.22,23.36-4.32,46.72-6.47,70.08-.39,4.31-.69,8.64-1.32,12.91a5.75,5.75,0,0,1-7.86,4.49c-2.34-.87-1.36-2.81-1.24-4.24q2-22.87,4.12-45.74c1.17-12.59,2.56-25.16,3.49-37.77C464,255.86,464.94,254.21,468.68,255.11Z"/><path class="cls-3" d="M390.31,305.88a37.42,37.42,0,0,1-36.86-35c-.19-3.33.58-6.38,4.39-6.59s4.79,2.66,5.06,6c1.26,15.32,12.63,26,27.52,26.07s26.5-10.76,27.64-25.93c.25-3.34,1.16-6.33,4.94-6.17,4.14.16,4.75,3.42,4.47,6.93A37.31,37.31,0,0,1,390.31,305.88Z"/><path class="cls-5" d="M376.66,324.19c-.57,3-2,4.92-5,4.7a4.28,4.28,0,0,1-4.22-4.65c.1-2.86,1.89-4.51,4.91-4.37C375.18,320,376.21,321.93,376.66,324.19Z"/><path class="cls-6" d="M390.29,319.8c2.95.28,4.62,1.61,4.68,4.39.07,3-1.7,4.73-4.55,4.69s-4.53-1.83-4.4-4.84C386.15,321.22,388,320.07,390.29,319.8Z"/><path class="cls-5" d="M409.54,319.86a4.08,4.08,0,0,1,4,4.41c0,2.82-1.79,4.74-4.74,4.62s-4.56-2.17-4.35-5C404.67,321.3,406.39,319.77,409.54,319.86Z"/><path class="cls-2" d="M225.29,392.54v3.58a29.19,29.19,0,0,0-14.5-4.13,18.3,18.3,0,0,0-13,31q5.1,5.14,13.86,5.14a24.21,24.21,0,0,0,11.22-2.52v-11h-8.65v-2.64h11.84v15.67A33.39,33.39,0,0,1,211.55,431a22.24,22.24,0,0,1-15.9-6,21,21,0,0,1-.11-30,21.89,21.89,0,0,1,15.71-6A34,34,0,0,1,225.29,392.54Z"/><path class="cls-2" d="M237.36,389.59v38.29H257.6v2.63H234.19V389.59Z"/><path class="cls-2" d="M282.27,389.06a21.3,21.3,0,0,1,15.4,6.11,20.7,20.7,0,0,1,0,29.76,22.39,22.39,0,0,1-30.74,0,20.77,20.77,0,0,1,0-29.76A21.16,21.16,0,0,1,282.27,389.06Zm.12,39.05a17.56,17.56,0,0,0,12.9-5.23,18.28,18.28,0,0,0,0-25.66,17.56,17.56,0,0,0-12.9-5.23,17.83,17.83,0,0,0-13,5.23,18.15,18.15,0,0,0,0,25.66A17.83,17.83,0,0,0,282.39,428.11Z"/><path class="cls-2" d="M336.62,389.59v2.63H321.26v38.29h-3.19V392.22H302.72v-2.63Z"/><path class="cls-2" d="M373.06,389.59a13.88,13.88,0,0,1,9.17,2.93,9.12,9.12,0,0,1,3.55,7.32,8.53,8.53,0,0,1-1.48,5,10,10,0,0,1-4.3,3.4v.35a11.78,11.78,0,0,1,6.67,3.82,10.15,10.15,0,0,1,2.39,6.7,10.76,10.76,0,0,1-6.58,10.11,18.26,18.26,0,0,1-7.28,1.34H358.06V389.59Zm-2.11,17a7.54,7.54,0,0,0,4.95-1.5,5.08,5.08,0,0,0,1.82-4.16,4.65,4.65,0,0,0-1.67-3.76,6.62,6.62,0,0,0-4.39-1.39H366v10.81Zm1.85,17.75c2.67,0,4.7-.5,6.06-1.51a5.14,5.14,0,0,0,2.05-4.44,4.85,4.85,0,0,0-2-4.11,9,9,0,0,0-5.47-1.51H366v11.57Z"/><path class="cls-2" d="M416.48,389.59l18.08,40.92h-8.35l-4.25-10h-18.2l-3.95,10h-8.29l16.87-40.92Zm-10.31,25h13.21l-6.91-16.2Z"/><path class="cls-2" d="M473,389.59l-23.84,34.74h24v6.18H435.58l23.82-34.74H437v-6.18Z"/><path class="cls-2" d="M499.89,389.59,518,430.51h-8.35l-4.24-10h-18.2l-3.95,10h-8.29l16.87-40.92Zm-10.31,25h13.21l-6.92-16.2Z"/><path class="cls-2" d="M543.51,389.59l18.08,40.92h-8.35l-4.25-10H530.8l-4,10h-8.29l16.88-40.92Zm-10.31,25h13.21l-6.91-16.2Z"/><path class="cls-2" d="M581.13,389.59a13.7,13.7,0,0,1,9.4,3.19,10.56,10.56,0,0,1,3.64,8.32,10.34,10.34,0,0,1-1.81,6.08,12,12,0,0,1-5.34,4.09,11.71,11.71,0,0,1,3.48,2.87,36.15,36.15,0,0,1,3.78,6.12q3.75,7.44,5.57,10.25H591c-.6-.89-1.42-2.33-2.46-4.3a96.56,96.56,0,0,0-5-8.81,12.08,12.08,0,0,0-3.05-3.22,6.07,6.07,0,0,0-3.37-.95H574.3v17.28h-7.91V389.59Zm-1.79,17.46a7.13,7.13,0,0,0,4.88-1.56,5.34,5.34,0,0,0,1.77-4.24,5,5,0,0,0-1.76-4.21,7.88,7.88,0,0,0-5-1.39H574.3v11.4Z"/><rect class="cls-7" x="388.13" y="192.91" width="21.5" height="8" rx="2"/><rect class="cls-7" x="380.13" y="208.41" width="37" height="8" rx="2"/><rect class="cls-7" x="369.13" y="223.91" width="59" height="8" rx="2"/></svg>