<svg xmlns="http://www.w3.org/2000/svg" viewBox="0 0 352 395.77"><defs><style>.cls-1{fill:#ffb7b8;}.cls-2{fill:#76dbfc;}.cls-3{fill:#c0e5b8;}.cls-4{fill:#f5f69c;}.cls-5{fill:#202020;}.cls-6{fill:#009924;}.cls-7{fill:#ea0f88;opacity:0.05;}.cls-8{fill:#bf6074;}.cls-9{fill:#009599;}.cls-10{fill:#999500;}</style></defs><g id="Layer_2" data-name="Layer 2"><g id="Layer_1-2" data-name="Layer 1"><rect class="cls-1" x="4.2" y="25.46" width="171" height="171"/><rect class="cls-2" x="175.2" y="25.46" width="171" height="171"/><rect class="cls-3" x="4.2" y="196.46" width="171" height="171"/><rect class="cls-4" x="175.2" y="196.46" width="171" height="171"/><path d="M22.81,357.29h.42a1,1,0,0,1,.53.11.36.36,0,0,1,.15.33.4.4,0,0,1-.13.36,1.06,1.06,0,0,1-.58.1H21.52a.51.51,0,0,1-.35-.11.46.46,0,0,1-.12-.35.39.39,0,0,1,.14-.34,1,1,0,0,1,.51-.1h.12v-5.71h-.1a1,1,0,0,1-.53-.11.4.4,0,0,1-.14-.35.46.46,0,0,1,.12-.35.53.53,0,0,1,.36-.11h1.6a1.27,1.27,0,0,1,.65.1.42.42,0,0,1,.13.36.35.35,0,0,1-.17.35,1.34,1.34,0,0,1-.65.11h-.28v2.2h3v-2.2h-.43a1,1,0,0,1-.52-.11.41.41,0,0,1-.16-.35.4.4,0,0,1,.15-.36,1.43,1.43,0,0,1,.7-.1h1.55a.45.45,0,0,1,.34.12.44.44,0,0,1,.12.34.42.42,0,0,1-.13.35.8.8,0,0,1-.48.11h-.15v5.71h.1a1,1,0,0,1,.52.1.52.52,0,0,1,0,.7,1.18,1.18,0,0,1-.62.1H25.54a1.32,1.32,0,0,1-.66-.1.41.41,0,0,1-.14-.36.36.36,0,0,1,.17-.34,1.44,1.44,0,0,1,.63-.1h.31v-2.64h-3Z" transform="translate(0 -2.17)"/><path d="M29.75,353.23a1.17,1.17,0,0,1-.11.6c-.06.09-.19.13-.38.13a.5.5,0,0,1-.34-.11.52.52,0,0,1-.11-.35c0-.13,0-.23,0-.3l.06-2.09a.46.46,0,0,1,.13-.34.49.49,0,0,1,.35-.11h5.52a.49.49,0,0,1,.35.11.43.43,0,0,1,.12.34l.07,2.09c0,.08,0,.15,0,.22a.24.24,0,0,0,0,.09.44.44,0,0,1-.12.34A.51.51,0,0,1,35,354a.41.41,0,0,1-.35-.13,1.33,1.33,0,0,1-.1-.6l-.07-1.65H32.62v5.71h1.23a.57.57,0,0,1,.38.11.42.42,0,0,1,.12.33.45.45,0,0,1-.11.34.45.45,0,0,1-.33.12H30.35a.45.45,0,0,1-.33-.12.45.45,0,0,1-.12-.34.41.41,0,0,1,.13-.33.64.64,0,0,1,.42-.11h1.19v-5.71H29.82Z" transform="translate(0 -2.17)"/><path d="M39.94,355.07l1.37-4a.65.65,0,0,1,.24-.33.79.79,0,0,1,.45-.1h1a.43.43,0,0,1,.31.11.46.46,0,0,1,.1.32.4.4,0,0,1-.13.34.92.92,0,0,1-.48.09h-.1l.18,5.77h.14a1.15,1.15,0,0,1,.56.1.38.38,0,0,1,.14.34.45.45,0,0,1-.12.34.43.43,0,0,1-.33.12H41.53a.83.83,0,0,1-.5-.1.43.43,0,0,1-.14-.36.38.38,0,0,1,.16-.34,1.37,1.37,0,0,1,.61-.1h.27l-.13-5.45-1.26,3.65a.72.72,0,0,1-.23.36.68.68,0,0,1-.42.11.69.69,0,0,1-.41-.11.77.77,0,0,1-.23-.36L38,351.84l-.12,5.45h.43a1,1,0,0,1,.53.11.36.36,0,0,1,.15.33.46.46,0,0,1-.13.36.89.89,0,0,1-.51.1H36.55a.45.45,0,0,1-.33-.11.46.46,0,0,1-.11-.35.36.36,0,0,1,.14-.34,1.08,1.08,0,0,1,.55-.1h.14l.18-5.77H37a.92.92,0,0,1-.48-.09.4.4,0,0,1-.14-.34.46.46,0,0,1,.11-.32.43.43,0,0,1,.31-.11h1a.79.79,0,0,1,.45.1.6.6,0,0,1,.24.33Z" transform="translate(0 -2.17)"/><path d="M50.12,355.63a1.14,1.14,0,0,1,.1-.61c.06-.1.18-.14.36-.14a.48.48,0,0,1,.34.11.5.5,0,0,1,.12.37v2.36a.5.5,0,0,1-.12.35.49.49,0,0,1-.34.12H44.65a.48.48,0,0,1-.34-.11.46.46,0,0,1-.12-.35.38.38,0,0,1,.14-.34,1.3,1.3,0,0,1,.62-.1h.79v-5.71H45a1.28,1.28,0,0,1-.61-.1.41.41,0,0,1-.15-.36.46.46,0,0,1,.12-.35.54.54,0,0,1,.37-.11h3.43a.48.48,0,0,1,.35.12.44.44,0,0,1,.12.34.43.43,0,0,1-.14.36,1.38,1.38,0,0,1-.63.1H46.75v5.71h3.37Z" transform="translate(0 -2.17)"/><polygon class="cls-5" points="174.65 196.96 174.65 362.63 170.56 360.89 175.45 372.46 180.33 360.89 176.24 362.63 176.24 196.96 174.65 196.96"/><polygon class="cls-5" points="176.24 196.96 176.24 30.3 180.33 32.03 175.45 20.46 170.56 32.03 174.65 30.3 174.65 196.96 176.24 196.96"/><polygon class="cls-5" points="176.5 197.75 342.16 197.75 340.43 201.84 352 196.96 340.43 192.07 342.16 196.17 176.5 196.17 176.5 197.75"/><polygon class="cls-5" points="176.5 196.17 9.84 196.17 11.57 192.07 0 196.96 11.57 201.84 9.84 197.75 176.5 197.75 176.5 196.17"/><path d="M114.33,2.17a5.72,5.72,0,0,1,2.77.72V4.58a5.36,5.36,0,0,0-2.71-.92,2,2,0,0,0-1.13.28.84.84,0,0,0-.4.74c0,.37.25.71.75,1,.14.09.69.36,1.63.79A4.63,4.63,0,0,1,117,7.77a2.64,2.64,0,0,1,.54,1.68,2.58,2.58,0,0,1-.92,2.05,3.48,3.48,0,0,1-2.36.78,5.61,5.61,0,0,1-1.63-.21,7,7,0,0,1-1.52-.72V9.48a4.79,4.79,0,0,0,3,1.31,1.87,1.87,0,0,0,1.13-.31.93.93,0,0,0,.43-.8,1.25,1.25,0,0,0-.75-1.11c-.41-.23-.94-.5-1.6-.82a4.8,4.8,0,0,1-1.74-1.23A2.54,2.54,0,0,1,111,4.88a2.41,2.41,0,0,1,.92-2A3.76,3.76,0,0,1,114.33,2.17Z" transform="translate(0 -2.17)"/><path d="M120.71,2.3V6.49h0a2.49,2.49,0,0,1,2-1.06,2.18,2.18,0,0,1,1.7.7,2.53,2.53,0,0,1,.64,1.8v4.22h-1.73V8.26a1.62,1.62,0,0,0-.31-1,1.05,1.05,0,0,0-.86-.39,1.33,1.33,0,0,0-.74.22,3.12,3.12,0,0,0-.76.75v4.36H119V2.3Z" transform="translate(0 -2.17)"/><path d="M129.16,5.43A3,3,0,0,1,131.1,6a1.86,1.86,0,0,1,.67,1.51V10.7c0,.25.1.38.3.38a1.05,1.05,0,0,0,.36-.11,1.92,1.92,0,0,0,.38-.25v1a3.27,3.27,0,0,1-1.66.56,1.42,1.42,0,0,1-.72-.16.86.86,0,0,1-.35-.55,3.44,3.44,0,0,1-2,.71,1.72,1.72,0,0,1-1.22-.48,1.53,1.53,0,0,1-.51-1.15,1.79,1.79,0,0,1,.51-1.35,4.25,4.25,0,0,1,1.78-.86L130,8v-.3c0-.65-.39-1-1.17-1a2.69,2.69,0,0,0-1.19.28,3.2,3.2,0,0,0-1.08.81V6.29A4,4,0,0,1,129.16,5.43Zm-1.06,5a.76.76,0,0,0,.23.57.77.77,0,0,0,.57.22,1.69,1.69,0,0,0,1.14-.52V8.93a7.78,7.78,0,0,0-1.14.46,2.13,2.13,0,0,0-.61.44A.85.85,0,0,0,128.1,10.39Z" transform="translate(0 -2.17)"/><path d="M135.55,2.3v9.85h-1.73V2.3Z" transform="translate(0 -2.17)"/><path d="M139.14,2.3v9.85H137.4V2.3Z" transform="translate(0 -2.17)"/><path d="M144.19,5.43a4.12,4.12,0,0,1,1.87.43,3.17,3.17,0,0,1,1.3,1.21,3.35,3.35,0,0,1,.46,1.76,3.57,3.57,0,0,1-.44,1.79,3.18,3.18,0,0,1-1.3,1.21,4,4,0,0,1-1.89.45,3.93,3.93,0,0,1-1.88-.45A3.21,3.21,0,0,1,141,10.62a3.57,3.57,0,0,1-.44-1.79,3.34,3.34,0,0,1,.47-1.77,3.14,3.14,0,0,1,1.3-1.2A4,4,0,0,1,144.19,5.43Zm-1.79,3.4a2.36,2.36,0,0,0,.49,1.57,1.56,1.56,0,0,0,1.29.59,1.68,1.68,0,0,0,1.33-.56A2.39,2.39,0,0,0,146,8.81a2.25,2.25,0,0,0-.49-1.55,1.71,1.71,0,0,0-1.33-.54,1.57,1.57,0,0,0-1.28.58A2.25,2.25,0,0,0,142.4,8.83Z" transform="translate(0 -2.17)"/><path d="M150.15,5.56l1.53,3.8,1.55-3.8h1.13l1.55,3.8,1.53-3.8h1.8l-2.93,6.72h-.73l-1.78-4-1.78,4h-.72l-3-6.72Z" transform="translate(0 -2.17)"/><path d="M167.28,5.43a4.7,4.7,0,0,1,2.08.45V7.35a3.52,3.52,0,0,0-1.74-.53,2,2,0,0,0-1.46.55,2,2,0,0,0-.56,1.5,2,2,0,0,0,.57,1.49,2.05,2.05,0,0,0,1.51.56,4.84,4.84,0,0,0,1.8-.46v1.4a5.47,5.47,0,0,1-2.1.42,3.69,3.69,0,0,1-2.6-.92,3.12,3.12,0,0,1-1-2.43,3.38,3.38,0,0,1,1-2.54A3.44,3.44,0,0,1,167.28,5.43Z" transform="translate(0 -2.17)"/><path d="M174.05,5.43a4.15,4.15,0,0,1,1.87.43,3.08,3.08,0,0,1,1.29,1.21,3.35,3.35,0,0,1,.46,1.76,3.47,3.47,0,0,1-.44,1.79,3.06,3.06,0,0,1-1.3,1.21,4.17,4.17,0,0,1-3.77,0,3.12,3.12,0,0,1-1.28-1.21,3.47,3.47,0,0,1-.44-1.79,3.34,3.34,0,0,1,.46-1.77,3.14,3.14,0,0,1,1.3-1.2A4,4,0,0,1,174.05,5.43Zm-1.79,3.4a2.41,2.41,0,0,0,.48,1.57A1.56,1.56,0,0,0,174,11a1.7,1.7,0,0,0,1.34-.56,2.45,2.45,0,0,0,.48-1.62,2.25,2.25,0,0,0-.49-1.55A1.7,1.7,0,0,0,174,6.72a1.6,1.6,0,0,0-1.28.58A2.25,2.25,0,0,0,172.26,8.83Z" transform="translate(0 -2.17)"/><path d="M182.88,5.43A2.15,2.15,0,0,1,185,6.75a4,4,0,0,1,1.11-1,2.44,2.44,0,0,1,1.22-.32,2.21,2.21,0,0,1,1.68.68,2.55,2.55,0,0,1,.65,1.82v4.22h-1.74V8.22a1.8,1.8,0,0,0-.29-1.08,1,1,0,0,0-.85-.39,2,2,0,0,0-1.53,1v4.38h-1.73v-4a1.63,1.63,0,0,0-.31-1.06,1,1,0,0,0-.83-.38,1.36,1.36,0,0,0-.78.24,3.31,3.31,0,0,0-.75.78v4.38h-1.74V5.56h1.74v.93a3.3,3.3,0,0,1,1-.8A2.34,2.34,0,0,1,182.88,5.43Z" transform="translate(0 -2.17)"/><path d="M194.68,5.43a2.92,2.92,0,0,1,2.27,1,3.49,3.49,0,0,1,.87,2.46,3.83,3.83,0,0,1-.41,1.78,3,3,0,0,1-1.15,1.22,3.34,3.34,0,0,1-1.7.44,3.41,3.41,0,0,1-1.54-.39v3.58h-1.74V5.56H193V6A2.88,2.88,0,0,1,194.68,5.43ZM193,10.62a2.44,2.44,0,0,0,1.21.37,1.6,1.6,0,0,0,1.31-.58A2.27,2.27,0,0,0,196,8.9a2.54,2.54,0,0,0-.44-1.58,1.49,1.49,0,0,0-1.25-.57,1.66,1.66,0,0,0-.59.1,3.45,3.45,0,0,0-.74.43Z" transform="translate(0 -2.17)"/><path d="M202.46,5.43a4.12,4.12,0,0,1,1.87.43,3.17,3.17,0,0,1,1.3,1.21,3.35,3.35,0,0,1,.46,1.76,3.57,3.57,0,0,1-.44,1.79,3.18,3.18,0,0,1-1.3,1.21,4,4,0,0,1-1.89.45,3.93,3.93,0,0,1-1.88-.45,3.21,3.21,0,0,1-1.29-1.21,3.57,3.57,0,0,1-.44-1.79,3.34,3.34,0,0,1,.47-1.77,3.14,3.14,0,0,1,1.3-1.2A4,4,0,0,1,202.46,5.43Zm-1.79,3.4a2.41,2.41,0,0,0,.48,1.57,1.59,1.59,0,0,0,1.3.59,1.68,1.68,0,0,0,1.33-.56,2.39,2.39,0,0,0,.49-1.62,2.3,2.3,0,0,0-.49-1.55,1.71,1.71,0,0,0-1.33-.54,1.57,1.57,0,0,0-1.28.58A2.25,2.25,0,0,0,200.67,8.83Z" transform="translate(0 -2.17)"/><path d="M209.61,5.43a4.21,4.21,0,0,1,1,.13,5,5,0,0,1,1,.39V7.34a4.94,4.94,0,0,0-1.06-.51,3.1,3.1,0,0,0-1-.2,1.09,1.09,0,0,0-.59.14.47.47,0,0,0-.21.41.41.41,0,0,0,.18.29,6.61,6.61,0,0,0,1,.55,6.17,6.17,0,0,1,1.59,1.05,1.64,1.64,0,0,1,.45,1.16,1.86,1.86,0,0,1-.66,1.5,2.77,2.77,0,0,1-1.79.55,5.55,5.55,0,0,1-1.32-.16,4.49,4.49,0,0,1-1-.37V10.3a4.64,4.64,0,0,0,2.14.71,1.46,1.46,0,0,0,.71-.16.48.48,0,0,0,.28-.42.4.4,0,0,0-.1-.28,1.16,1.16,0,0,0-.3-.27c-.13-.08-.54-.3-1.23-.64a3.54,3.54,0,0,1-1.18-.83,1.58,1.58,0,0,1-.38-1.06A1.64,1.64,0,0,1,207.82,6,2.84,2.84,0,0,1,209.61,5.43Z" transform="translate(0 -2.17)"/><path d="M214.23,2.51a1,1,0,0,1,1,1,1,1,0,0,1-.28.69.92.92,0,0,1-.7.3.91.91,0,0,1-.68-.3,1,1,0,0,1-.3-.69.92.92,0,0,1,.3-.69A1,1,0,0,1,214.23,2.51Zm.87,3.05v6.59h-1.73V5.56Z" transform="translate(0 -2.17)"/><path d="M218.7,3.81h.14V5.56h2.26V6.87h-2.26v3a1,1,0,0,0,.27.72,1,1,0,0,0,.73.28,3,3,0,0,0,1.4-.44v1.39a4.38,4.38,0,0,1-1.77.42,2.38,2.38,0,0,1-1.73-.61,2.18,2.18,0,0,1-.63-1.64V6.87h-1V6.59Z" transform="translate(0 -2.17)"/><path d="M223.15,2.51a.94.94,0,0,1,.69.29,1,1,0,0,1,0,1.38.92.92,0,0,1-.69.3.93.93,0,0,1-.69-.3,1,1,0,0,1-.29-.69.94.94,0,0,1,.29-.69A1,1,0,0,1,223.15,2.51ZM224,5.56v6.59h-1.74V5.56Z" transform="translate(0 -2.17)"/><path d="M229.07,5.43a4.12,4.12,0,0,1,1.87.43,3.17,3.17,0,0,1,1.3,1.21,3.45,3.45,0,0,1,.46,1.76,3.57,3.57,0,0,1-.44,1.79,3.18,3.18,0,0,1-1.3,1.21,4,4,0,0,1-1.89.45,3.93,3.93,0,0,1-1.88-.45,3.15,3.15,0,0,1-1.29-1.21,3.57,3.57,0,0,1-.44-1.79,3.34,3.34,0,0,1,.47-1.77,3.18,3.18,0,0,1,1.29-1.2A4.09,4.09,0,0,1,229.07,5.43Zm-1.79,3.4a2.41,2.41,0,0,0,.48,1.57,1.59,1.59,0,0,0,1.3.59,1.68,1.68,0,0,0,1.33-.56,2.39,2.39,0,0,0,.49-1.62,2.3,2.3,0,0,0-.49-1.55,1.71,1.71,0,0,0-1.33-.54,1.61,1.61,0,0,0-1.29.58A2.3,2.3,0,0,0,227.28,8.83Z" transform="translate(0 -2.17)"/><path d="M237.9,5.43a2.18,2.18,0,0,1,1.69.7A2.61,2.61,0,0,1,240.22,8v4.19H238.5v-4a1.59,1.59,0,0,0-.31-1,1,1,0,0,0-.84-.37,1.28,1.28,0,0,0-.75.23,3.42,3.42,0,0,0-.78.79v4.38h-1.73V5.56h1.73v.93a3,3,0,0,1,1-.81A2.49,2.49,0,0,1,237.9,5.43Z" transform="translate(0 -2.17)"/><path d="M122.89,384.76a5.8,5.8,0,0,1,2.74.63,4.58,4.58,0,0,1,1.86,1.76,5,5,0,0,1,.66,2.56,5,5,0,0,1-.66,2.56,4.55,4.55,0,0,1-1.9,1.73,6.15,6.15,0,0,1-2.81.61h-4v-9.85Zm-.19,8.37a3.45,3.45,0,0,0,2.53-.95,3.73,3.73,0,0,0,0-5,3.6,3.6,0,0,0-2.59-.92h-2v6.88Z" transform="translate(0 -2.17)"/><path d="M132.66,387.9a3,3,0,0,1,2.3.93,3.7,3.7,0,0,1,.85,2.57v.27h-4.66a2,2,0,0,0,.65,1.35,2.25,2.25,0,0,0,1.52.48,3.23,3.23,0,0,0,1.2-.22,5.23,5.23,0,0,0,1.19-.65v1.29a4.71,4.71,0,0,1-2.81.82,3.5,3.5,0,0,1-2.54-.94,3.25,3.25,0,0,1-1-2.49,3.42,3.42,0,0,1,.91-2.46A3.16,3.16,0,0,1,132.66,387.9Zm1.52,2.71a1.9,1.9,0,0,0-.44-1.12,1.29,1.29,0,0,0-1-.41,1.42,1.42,0,0,0-1,.39,1.89,1.89,0,0,0-.51,1.14Z" transform="translate(0 -2.17)"/><path d="M140.12,387.9a3,3,0,0,1,2.3.93,3.7,3.7,0,0,1,.84,2.57v.27H138.6a2,2,0,0,0,.66,1.35,2.25,2.25,0,0,0,1.52.48,3.22,3.22,0,0,0,1.19-.22,5,5,0,0,0,1.19-.65v1.29a4.68,4.68,0,0,1-2.8.82,3.54,3.54,0,0,1-2.55-.94,3.25,3.25,0,0,1-1-2.49,3.42,3.42,0,0,1,.92-2.46A3.15,3.15,0,0,1,140.12,387.9Zm1.51,2.71a1.9,1.9,0,0,0-.43-1.12,1.32,1.32,0,0,0-1-.41,1.46,1.46,0,0,0-1.06.39,2,2,0,0,0-.5,1.14Z" transform="translate(0 -2.17)"/><path d="M148,387.9a2.94,2.94,0,0,1,2.27,1,3.48,3.48,0,0,1,.86,2.46,3.78,3.78,0,0,1-.4,1.77,3,3,0,0,1-1.15,1.22,3.24,3.24,0,0,1-1.7.44,3.41,3.41,0,0,1-1.54-.39v3.59h-1.74V388h1.72v.42A2.86,2.86,0,0,1,148,387.9Zm-1.66,5.18a2.43,2.43,0,0,0,1.21.38,1.63,1.63,0,0,0,1.31-.59,2.25,2.25,0,0,0,.5-1.51,2.56,2.56,0,0,0-.44-1.58,1.51,1.51,0,0,0-1.26-.57,1.91,1.91,0,0,0-.58.1,3.34,3.34,0,0,0-.74.44Z" transform="translate(0 -2.17)"/><path d="M159.71,387.9a4.84,4.84,0,0,1,2.08.44v1.48a3.5,3.5,0,0,0-1.75-.54,2.1,2.1,0,0,0-1.45,3.54,2,2,0,0,0,1.51.57,4.93,4.93,0,0,0,1.81-.47v1.4a5.52,5.52,0,0,1-2.11.42,3.66,3.66,0,0,1-2.6-.92,3.16,3.16,0,0,1-1-2.43,3.39,3.39,0,0,1,1-2.53A3.45,3.45,0,0,1,159.71,387.9Z" transform="translate(0 -2.17)"/><path d="M166.47,387.9a4,4,0,0,1,1.87.43,3.17,3.17,0,0,1,1.3,1.21,3.41,3.41,0,0,1,.46,1.75,3.57,3.57,0,0,1-.44,1.79,3.13,3.13,0,0,1-1.3,1.22,4.11,4.11,0,0,1-1.89.44,4,4,0,0,1-1.88-.44,3.11,3.11,0,0,1-1.29-1.22,3.57,3.57,0,0,1-.44-1.79,3.33,3.33,0,0,1,.47-1.76,3.11,3.11,0,0,1,1.29-1.2A4,4,0,0,1,166.47,387.9Zm-1.79,3.39a2.42,2.42,0,0,0,.48,1.58,1.62,1.62,0,0,0,1.3.59,1.65,1.65,0,0,0,1.33-.57,2.35,2.35,0,0,0,.49-1.61,2.27,2.27,0,0,0-.49-1.55,1.72,1.72,0,0,0-1.33-.55,1.64,1.64,0,0,0-1.29.58A2.34,2.34,0,0,0,164.68,391.29Z" transform="translate(0 -2.17)"/><path d="M175.3,387.9a2.23,2.23,0,0,1,1.29.36,2.17,2.17,0,0,1,.79.95,4.18,4.18,0,0,1,1.11-1,2.4,2.4,0,0,1,1.21-.31,2.23,2.23,0,0,1,1.69.68,2.53,2.53,0,0,1,.64,1.82v4.21H180.3v-3.92a1.73,1.73,0,0,0-.3-1.08,1,1,0,0,0-.85-.4,2,2,0,0,0-1.53,1v4.38h-1.73v-3.95a1.61,1.61,0,0,0-.31-1.06,1,1,0,0,0-.83-.39,1.32,1.32,0,0,0-.77.24,3.78,3.78,0,0,0-.76.78v4.38h-1.73V388h1.73V389a3.52,3.52,0,0,1,1-.79A2.4,2.4,0,0,1,175.3,387.9Z" transform="translate(0 -2.17)"/><path d="M187.1,387.9a3,3,0,0,1,2.28,1,3.53,3.53,0,0,1,.86,2.46,3.79,3.79,0,0,1-.41,1.77,2.88,2.88,0,0,1-1.15,1.22,3.21,3.21,0,0,1-1.69.44,3.45,3.45,0,0,1-1.55-.39v3.59h-1.73V388h1.72v.42A2.83,2.83,0,0,1,187.1,387.9Zm-1.66,5.18a2.49,2.49,0,0,0,1.22.38,1.64,1.64,0,0,0,1.31-.59,2.25,2.25,0,0,0,.49-1.51,2.49,2.49,0,0,0-.44-1.58,1.48,1.48,0,0,0-1.25-.57,2,2,0,0,0-.59.1,3.86,3.86,0,0,0-.74.44Z" transform="translate(0 -2.17)"/><path d="M194.89,387.9a4,4,0,0,1,1.87.43,3.08,3.08,0,0,1,1.29,1.21,3.32,3.32,0,0,1,.46,1.75,3.47,3.47,0,0,1-.44,1.79,3,3,0,0,1-1.3,1.22,4.26,4.26,0,0,1-3.77,0,3.08,3.08,0,0,1-1.28-1.22,3.47,3.47,0,0,1-.44-1.79,3.33,3.33,0,0,1,.46-1.76,3.08,3.08,0,0,1,1.3-1.2A3.91,3.91,0,0,1,194.89,387.9Zm-1.79,3.39a2.42,2.42,0,0,0,.48,1.58,1.59,1.59,0,0,0,1.29.59,1.67,1.67,0,0,0,1.34-.57,2.4,2.4,0,0,0,.48-1.61,2.22,2.22,0,0,0-.49-1.55,1.7,1.7,0,0,0-1.33-.55,1.63,1.63,0,0,0-1.28.58A2.29,2.29,0,0,0,193.1,391.29Z" transform="translate(0 -2.17)"/><path d="M202,387.9a4.19,4.19,0,0,1,1,.12,6.57,6.57,0,0,1,1,.39v1.39a4.94,4.94,0,0,0-1.06-.51,3.12,3.12,0,0,0-1-.19,1.12,1.12,0,0,0-.59.14.45.45,0,0,0-.21.4.41.41,0,0,0,.18.3,6.31,6.31,0,0,0,1,.54,5.67,5.67,0,0,1,1.58,1.06,1.62,1.62,0,0,1,.45,1.16,1.82,1.82,0,0,1-.66,1.49,2.7,2.7,0,0,1-1.79.55,5.56,5.56,0,0,1-1.32-.15,4.65,4.65,0,0,1-1-.38v-1.44a4.64,4.64,0,0,0,2.14.7,1.37,1.37,0,0,0,.72-.16.46.46,0,0,0,.27-.42.49.49,0,0,0-.09-.28,1.65,1.65,0,0,0-.3-.26c-.13-.09-.54-.3-1.24-.64a3.52,3.52,0,0,1-1.17-.83,1.55,1.55,0,0,1-.38-1.06,1.65,1.65,0,0,1,.68-1.4A2.89,2.89,0,0,1,202,387.9Z" transform="translate(0 -2.17)"/><path d="M206.66,385a1,1,0,0,1,1,1,1,1,0,0,1-.29.69.92.92,0,0,1-.69.3.93.93,0,0,1-.69-.3,1,1,0,0,1-.29-.69.94.94,0,0,1,.29-.69A1,1,0,0,1,206.66,385Zm.87,3v6.58h-1.74V388Z" transform="translate(0 -2.17)"/><path d="M211.12,386.28h.14V388h2.26v1.31h-2.26v3a.93.93,0,0,0,1,1,3,3,0,0,0,1.39-.43v1.38a4.3,4.3,0,0,1-1.76.42,2.38,2.38,0,0,1-1.74-.61,2.16,2.16,0,0,1-.62-1.64v-3.15h-1v-.28Z" transform="translate(0 -2.17)"/><path d="M215.57,385a.94.94,0,0,1,.69.29.91.91,0,0,1,.29.69,1,1,0,0,1-.28.69.92.92,0,0,1-.7.3,1,1,0,0,1-.69-.3,1,1,0,0,1-.29-.69.92.92,0,0,1,.3-.69A1,1,0,0,1,215.57,385Zm.87,3v6.58h-1.73V388Z" transform="translate(0 -2.17)"/><path d="M221.5,387.9a4,4,0,0,1,1.87.43,3.08,3.08,0,0,1,1.29,1.21,3.32,3.32,0,0,1,.46,1.75,3.47,3.47,0,0,1-.44,1.79,3,3,0,0,1-1.3,1.22,4.26,4.26,0,0,1-3.77,0,3.08,3.08,0,0,1-1.28-1.22,3.47,3.47,0,0,1-.44-1.79,3.33,3.33,0,0,1,.46-1.76,3.08,3.08,0,0,1,1.3-1.2A3.91,3.91,0,0,1,221.5,387.9Zm-1.79,3.39a2.42,2.42,0,0,0,.48,1.58,1.59,1.59,0,0,0,1.29.59,1.67,1.67,0,0,0,1.34-.57,2.4,2.4,0,0,0,.48-1.61,2.22,2.22,0,0,0-.49-1.55,1.7,1.7,0,0,0-1.33-.55,1.63,1.63,0,0,0-1.28.58A2.29,2.29,0,0,0,219.71,391.29Z" transform="translate(0 -2.17)"/><path d="M230.33,387.9a2.19,2.19,0,0,1,1.69.69,2.64,2.64,0,0,1,.63,1.83v4.19h-1.73v-4a1.49,1.49,0,0,0-.31-1,1,1,0,0,0-.83-.38,1.34,1.34,0,0,0-.76.24,3.78,3.78,0,0,0-.77.78v4.38h-1.74V388h1.74V389a3.1,3.1,0,0,1,1-.81A2.53,2.53,0,0,1,230.33,387.9Z" transform="translate(0 -2.17)"/><path d="M21.83,184.63a8.73,8.73,0,0,1,3.61.82v1.74a7.73,7.73,0,0,0-3.53-.91,4.11,4.11,0,0,0-1.92.43,3.11,3.11,0,0,0-1.3,1.24,3.5,3.5,0,0,0-.46,1.8,3.15,3.15,0,0,0,1,2.43,3.8,3.8,0,0,0,2.65.92,4.94,4.94,0,0,0,.87-.08,5.48,5.48,0,0,0,1-.3v-1.63H22.1V189.6h3.53v4.06a5.59,5.59,0,0,1-1.74.8,7.86,7.86,0,0,1-2.12.28,6.17,6.17,0,0,1-2.83-.64,4.82,4.82,0,0,1-2.68-4.38A4.88,4.88,0,0,1,19,185.28,6.3,6.3,0,0,1,21.83,184.63Z" transform="translate(0 -2.17)"/><path d="M30.39,187.9a3,3,0,0,1,2.3.93,3.67,3.67,0,0,1,.85,2.58v.26H28.88a2,2,0,0,0,.66,1.35,2.23,2.23,0,0,0,1.52.48,3.22,3.22,0,0,0,1.19-.22,5,5,0,0,0,1.19-.65v1.29a4.71,4.71,0,0,1-2.81.82,3.51,3.51,0,0,1-2.54-.94,3.25,3.25,0,0,1-1-2.49,3.42,3.42,0,0,1,.91-2.46A3.18,3.18,0,0,1,30.39,187.9Zm1.52,2.72a1.91,1.91,0,0,0-.44-1.13,1.29,1.29,0,0,0-1-.41,1.45,1.45,0,0,0-1.05.39,1.89,1.89,0,0,0-.5,1.15Z" transform="translate(0 -2.17)"/><path d="M38.72,187.9a2.2,2.2,0,0,1,1.69.69,2.64,2.64,0,0,1,.63,1.83v4.19H39.31v-4a1.49,1.49,0,0,0-.31-1,1,1,0,0,0-.83-.38,1.34,1.34,0,0,0-.76.24,3.78,3.78,0,0,0-.77.78v4.38H34.9V188h1.74V189a3.1,3.1,0,0,1,1-.81A2.53,2.53,0,0,1,38.72,187.9Z" transform="translate(0 -2.17)"/><path d="M45.66,187.9a3,3,0,0,1,2.3.93,3.67,3.67,0,0,1,.85,2.58v.26H44.15a2,2,0,0,0,.66,1.35,2.23,2.23,0,0,0,1.52.48,3.22,3.22,0,0,0,1.19-.22,5.23,5.23,0,0,0,1.19-.65v1.29a4.71,4.71,0,0,1-2.81.82,3.51,3.51,0,0,1-2.54-.94,3.25,3.25,0,0,1-1-2.49,3.42,3.42,0,0,1,.91-2.46A3.18,3.18,0,0,1,45.66,187.9Zm1.52,2.72a1.91,1.91,0,0,0-.44-1.13,1.29,1.29,0,0,0-1-.41,1.43,1.43,0,0,0-1,.39,2,2,0,0,0-.51,1.15Z" transform="translate(0 -2.17)"/><path d="M53.94,187.9a1.54,1.54,0,0,1,.68.16,3.61,3.61,0,0,1,.78.52l-.63,1.51a2.29,2.29,0,0,0-1.21-.56,1.28,1.28,0,0,0-.79.3,2.17,2.17,0,0,0-.63.79,2.25,2.25,0,0,0-.24,1v3H50.17V188H51.9v1.68h0a4.73,4.73,0,0,1,1-1.38A1.55,1.55,0,0,1,53.94,187.9Z" transform="translate(0 -2.17)"/><path d="M57.13,185a1,1,0,0,1,1,1,1,1,0,0,1-.28.69,1,1,0,0,1-1.39,0,1,1,0,0,1-.29-.69.92.92,0,0,1,.3-.69A.94.94,0,0,1,57.13,185ZM58,188v6.58H56.26V188Z" transform="translate(0 -2.17)"/><path d="M63,187.9a4.84,4.84,0,0,1,2.08.44v1.48a3.5,3.5,0,0,0-1.75-.54,2.1,2.1,0,0,0-1.45,3.54,2,2,0,0,0,1.51.57,4.93,4.93,0,0,0,1.81-.47v1.41a5.66,5.66,0,0,1-2.11.41,3.66,3.66,0,0,1-2.6-.92,3.16,3.16,0,0,1-1-2.43,3.39,3.39,0,0,1,1-2.53A3.46,3.46,0,0,1,63,187.9Z" transform="translate(0 -2.17)"/><path d="M21.65,202.09,26,212H24l-1-2.4H18.59l-.95,2.4h-2l4.06-9.86Zm-2.48,6h3.18l-1.67-3.9Z" transform="translate(0 -2.17)"/><path d="M30.33,205.23a2.92,2.92,0,0,1,2.27,1,3.49,3.49,0,0,1,.87,2.46,3.86,3.86,0,0,1-.41,1.78,2.94,2.94,0,0,1-1.15,1.22,3.29,3.29,0,0,1-1.69.43,3.57,3.57,0,0,1-1.55-.38v3.58H26.94v-9.91h1.72v.42A2.9,2.9,0,0,1,30.33,205.23Zm-1.66,5.19a2.47,2.47,0,0,0,1.22.37,1.61,1.61,0,0,0,1.31-.59,2.24,2.24,0,0,0,.49-1.5,2.54,2.54,0,0,0-.44-1.58,1.46,1.46,0,0,0-1.25-.58,1.71,1.71,0,0,0-.59.11,3.26,3.26,0,0,0-.74.43Z" transform="translate(0 -2.17)"/><path d="M38.24,205.23a3,3,0,0,1,2.28,1,3.53,3.53,0,0,1,.86,2.46,3.85,3.85,0,0,1-.4,1.78,3,3,0,0,1-1.16,1.22,3.27,3.27,0,0,1-1.69.43,3.5,3.5,0,0,1-1.54-.38v3.58H34.85v-9.91h1.72v.42A2.9,2.9,0,0,1,38.24,205.23Zm-1.65,5.19a2.41,2.41,0,0,0,1.21.37,1.61,1.61,0,0,0,1.31-.59,2.24,2.24,0,0,0,.49-1.5,2.48,2.48,0,0,0-.44-1.58,1.46,1.46,0,0,0-1.25-.58,1.62,1.62,0,0,0-.58.11,2.89,2.89,0,0,0-.74.43Z" transform="translate(0 -2.17)"/><path d="M44.56,202.09V212H42.82v-9.86Z" transform="translate(0 -2.17)"/><path d="M47.27,202.31a1,1,0,0,1,1,1A1,1,0,0,1,48,204a1,1,0,0,1-1.39,0,1,1,0,0,1-.29-.69.92.92,0,0,1,.3-.69A.94.94,0,0,1,47.27,202.31Zm.87,3.05V212H46.4v-6.59Z" transform="translate(0 -2.17)"/><path d="M53.09,205.23a4.7,4.7,0,0,1,2.08.45v1.47a3.5,3.5,0,0,0-1.75-.54,2,2,0,0,0-1.45.56,2,2,0,0,0-.57,1.5,2,2,0,0,0,.57,1.49,2.07,2.07,0,0,0,1.51.56,4.93,4.93,0,0,0,1.81-.47v1.41a5.47,5.47,0,0,1-2.11.41,3.7,3.7,0,0,1-2.6-.91,3.18,3.18,0,0,1-1-2.44,3.41,3.41,0,0,1,1-2.53A3.46,3.46,0,0,1,53.09,205.23Z" transform="translate(0 -2.17)"/><path d="M59,205.23a3,3,0,0,1,1.94.54,1.85,1.85,0,0,1,.67,1.51v3.22c0,.25.1.38.3.38a1.05,1.05,0,0,0,.36-.11,1.92,1.92,0,0,0,.38-.25v1a3.25,3.25,0,0,1-1.66.55,1.43,1.43,0,0,1-.72-.15.86.86,0,0,1-.35-.55,3.42,3.42,0,0,1-2,.7,1.73,1.73,0,0,1-1.23-.48,1.52,1.52,0,0,1-.51-1.15,1.79,1.79,0,0,1,.51-1.34,4.25,4.25,0,0,1,1.78-.86l1.4-.41v-.31q0-1-1.17-1a2.82,2.82,0,0,0-1.19.27,3.48,3.48,0,0,0-1.08.81v-1.55A4,4,0,0,1,59,205.23Zm-1.06,5a.77.77,0,0,0,.8.8,1.69,1.69,0,0,0,1.14-.52v-1.74a8.12,8.12,0,0,0-1.14.47,2,2,0,0,0-.61.44A.82.82,0,0,0,57.9,210.18Z" transform="translate(0 -2.17)"/><path d="M65.3,202.09v3.69a3,3,0,0,1,1.74-.55,3.07,3.07,0,0,1,1.58.43,2.85,2.85,0,0,1,1.1,1.2,3.75,3.75,0,0,1,.39,1.72,3.38,3.38,0,0,1-1,2.56,3.63,3.63,0,0,1-2.64.93,8,8,0,0,1-2.94-.55v-9.43Zm0,8.48a3.92,3.92,0,0,0,1.3.19,1.52,1.52,0,0,0,1.26-.58,2.53,2.53,0,0,0,.47-1.61,2.25,2.25,0,0,0-.47-1.49,1.56,1.56,0,0,0-1.25-.55,1.76,1.76,0,0,0-.66.13,2.73,2.73,0,0,0-.65.42Z" transform="translate(0 -2.17)"/><path d="M72.41,202.31a.94.94,0,0,1,.69.29.91.91,0,0,1,.29.69,1,1,0,0,1-.28.69.92.92,0,0,1-.7.3.91.91,0,0,1-.68-.3,1,1,0,0,1-.3-.69.92.92,0,0,1,.3-.69A1,1,0,0,1,72.41,202.31Zm.87,3.05V212H71.55v-6.59Z" transform="translate(0 -2.17)"/><path d="M76.86,202.09V212H75.13v-9.86Z" transform="translate(0 -2.17)"/><path d="M79.58,202.31a1,1,0,0,1,1,1,1,1,0,0,1-.29.69.92.92,0,0,1-.69.3,1,1,0,0,1-.69-.3,1,1,0,0,1-.29-.69.92.92,0,0,1,.3-.69A.94.94,0,0,1,79.58,202.31Zm.87,3.05V212H78.71v-6.59Z" transform="translate(0 -2.17)"/><path d="M84,203.61h.14v1.75h2.26v1.31H84.18v3a1,1,0,0,0,.27.72,1,1,0,0,0,.74.28,3,3,0,0,0,1.39-.44v1.39a4.27,4.27,0,0,1-1.76.41,2.42,2.42,0,0,1-1.74-.6,2.18,2.18,0,0,1-.62-1.65v-3.15h-1v-.28Z" transform="translate(0 -2.17)"/><path d="M88.59,205.36l1.56,3.54,1.58-3.54h1.86L89,215.27H87.18l2.1-4.54-2.56-5.37Z" transform="translate(0 -2.17)"/><path d="M294.23,184.43a5.75,5.75,0,0,1,2.77.72v1.7a5.41,5.41,0,0,0-2.72-.93,2,2,0,0,0-1.12.28.87.87,0,0,0-.41.74c0,.38.25.72.76,1a16.9,16.9,0,0,0,1.63.79,5,5,0,0,1,1.75,1.27,2.74,2.74,0,0,1,.53,1.68,2.55,2.55,0,0,1-.91,2,3.53,3.53,0,0,1-2.37.78,5.49,5.49,0,0,1-1.62-.21,6.79,6.79,0,0,1-1.53-.71v-1.88a4.73,4.73,0,0,0,3,1.31,1.9,1.9,0,0,0,1.12-.3.93.93,0,0,0,.43-.8,1.28,1.28,0,0,0-.74-1.12c-.42-.23-.95-.5-1.6-.81a4.63,4.63,0,0,1-1.74-1.23,2.49,2.49,0,0,1-.58-1.64,2.39,2.39,0,0,1,.93-2A3.8,3.8,0,0,1,294.23,184.43Z" transform="translate(0 -2.17)"/><path d="M302.26,187.7a2.91,2.91,0,0,1,2.27.94,3.51,3.51,0,0,1,.87,2.47,3.79,3.79,0,0,1-.41,1.77,2.88,2.88,0,0,1-1.15,1.22,3.21,3.21,0,0,1-1.69.44,3.42,3.42,0,0,1-1.55-.39v3.59h-1.73v-9.91h1.72v.42A2.83,2.83,0,0,1,302.26,187.7Zm-1.66,5.18a2.49,2.49,0,0,0,1.22.38,1.64,1.64,0,0,0,1.31-.59,2.25,2.25,0,0,0,.49-1.51,2.56,2.56,0,0,0-.44-1.58,1.48,1.48,0,0,0-1.25-.57,2,2,0,0,0-.59.1,3.58,3.58,0,0,0-.74.44Z" transform="translate(0 -2.17)"/><path d="M309.73,187.7a3,3,0,0,1,2.3.93,3.7,3.7,0,0,1,.84,2.57v.27h-4.66a2,2,0,0,0,.66,1.35,2.25,2.25,0,0,0,1.52.48,3.27,3.27,0,0,0,1.2-.22,5,5,0,0,0,1.18-.65v1.29a4.68,4.68,0,0,1-2.8.82,3.54,3.54,0,0,1-2.55-.94,3.25,3.25,0,0,1-1-2.49,3.4,3.4,0,0,1,.91-2.46A3.16,3.16,0,0,1,309.73,187.7Zm1.51,2.71a1.9,1.9,0,0,0-.43-1.12,1.3,1.3,0,0,0-1-.41,1.46,1.46,0,0,0-1.06.39,2,2,0,0,0-.5,1.14Z" transform="translate(0 -2.17)"/><path d="M317.39,187.7a4.92,4.92,0,0,1,2.09.44v1.48a3.5,3.5,0,0,0-1.75-.54,2.1,2.1,0,0,0-1.45,3.54,2,2,0,0,0,1.51.57,5,5,0,0,0,1.81-.47v1.4a5.55,5.55,0,0,1-2.11.42,3.69,3.69,0,0,1-2.6-.92,3.12,3.12,0,0,1-1-2.43,3.39,3.39,0,0,1,1-2.53A3.44,3.44,0,0,1,317.39,187.7Z" transform="translate(0 -2.17)"/><path d="M321.82,184.78a1,1,0,0,1,.69.29.94.94,0,0,1,.29.69,1,1,0,0,1-.29.69.94.94,0,0,1-1.38,0,1,1,0,0,1,0-1.38A1,1,0,0,1,321.82,184.78Zm.86,3.05v6.58H321v-6.58Z" transform="translate(0 -2.17)"/><path d="M327.25,184.43a3.34,3.34,0,0,1,.62.06,2.34,2.34,0,0,1,.52.15v1.41a2.78,2.78,0,0,0-.78-.1,1.27,1.27,0,0,0-.94.32,1.58,1.58,0,0,0-.3,1.08v.48h1.12v1.31h-1.12v5.27h-1.74v-5.27h-.94v-1.31h.94v-.5a3,3,0,0,1,.72-2.11A2.42,2.42,0,0,1,327.25,184.43Z" transform="translate(0 -2.17)"/><path d="M329.34,184.78a.94.94,0,0,1,.69.29.91.91,0,0,1,.29.69,1,1,0,0,1-.28.69.94.94,0,0,1-.7.3,1,1,0,0,1-.69-.3,1,1,0,0,1-.29-.69.92.92,0,0,1,.3-.69A.94.94,0,0,1,329.34,184.78Zm.87,3.05v6.58h-1.74v-6.58Z" transform="translate(0 -2.17)"/><path d="M335.16,187.7a4.84,4.84,0,0,1,2.08.44v1.48a3.5,3.5,0,0,0-1.75-.54,2.1,2.1,0,0,0-1.45,3.54,2.06,2.06,0,0,0,1.52.57,4.93,4.93,0,0,0,1.8-.47v1.4a5.48,5.48,0,0,1-2.11.42,3.7,3.7,0,0,1-2.6-.92,3.16,3.16,0,0,1-1-2.43,3.39,3.39,0,0,1,1-2.53A3.46,3.46,0,0,1,335.16,187.7Z" transform="translate(0 -2.17)"/><path d="M265.83,201.89l4.35,9.86h-2l-1-2.4h-4.38l-.95,2.4h-2l4.07-9.86Zm-2.48,6h3.18l-1.66-3.9Z" transform="translate(0 -2.17)"/><path d="M274.51,205a2.94,2.94,0,0,1,2.28.95,3.48,3.48,0,0,1,.86,2.46,3.85,3.85,0,0,1-.4,1.78,3,3,0,0,1-1.16,1.22,3.27,3.27,0,0,1-1.69.43,3.5,3.5,0,0,1-1.54-.38v3.58h-1.74v-9.91h1.72v.42A2.92,2.92,0,0,1,274.51,205Zm-1.65,5.19a2.51,2.51,0,0,0,1.21.37,1.63,1.63,0,0,0,1.31-.59,2.25,2.25,0,0,0,.5-1.51,2.53,2.53,0,0,0-.44-1.57,1.49,1.49,0,0,0-1.26-.58,1.66,1.66,0,0,0-.58.11,2.89,2.89,0,0,0-.74.43Z" transform="translate(0 -2.17)"/><path d="M282.43,205a2.92,2.92,0,0,1,2.27.95,3.49,3.49,0,0,1,.87,2.46,3.86,3.86,0,0,1-.41,1.78,3,3,0,0,1-1.15,1.22,3.33,3.33,0,0,1-1.7.43,3.53,3.53,0,0,1-1.54-.38v3.58H279v-9.91h1.72v.42A2.9,2.9,0,0,1,282.43,205Zm-1.66,5.19a2.54,2.54,0,0,0,1.21.37,1.65,1.65,0,0,0,1.32-.59,2.3,2.3,0,0,0,.49-1.51,2.53,2.53,0,0,0-.44-1.57,1.48,1.48,0,0,0-1.25-.58,1.67,1.67,0,0,0-.59.11,3.06,3.06,0,0,0-.74.43Z" transform="translate(0 -2.17)"/><path d="M288.74,201.89v9.86H287v-9.86Z" transform="translate(0 -2.17)"/><path d="M291.46,202.11a1,1,0,0,1,.69.29.94.94,0,0,1,.29.69,1,1,0,0,1-.29.69.94.94,0,0,1-1.38,0,1,1,0,0,1-.3-.69.92.92,0,0,1,.3-.69A1,1,0,0,1,291.46,202.11Zm.86,3v6.59h-1.73v-6.59Z" transform="translate(0 -2.17)"/><path d="M297.27,205a4.7,4.7,0,0,1,2.08.45V207a3.44,3.44,0,0,0-1.75-.54,2,2,0,0,0-1.45.56,2,2,0,0,0-.56,1.5,2,2,0,0,0,.57,1.48,2,2,0,0,0,1.51.57,4.88,4.88,0,0,0,1.8-.47v1.41a5.65,5.65,0,0,1-2.1.41,3.68,3.68,0,0,1-2.6-.91,3.15,3.15,0,0,1-1-2.44,3.35,3.35,0,0,1,1-2.53A3.44,3.44,0,0,1,297.27,205Z" transform="translate(0 -2.17)"/><path d="M303.14,205a3,3,0,0,1,1.94.54,1.82,1.82,0,0,1,.67,1.51v3.22c0,.25.1.37.3.37a.79.79,0,0,0,.36-.11,1.32,1.32,0,0,0,.38-.25v1a3.22,3.22,0,0,1-1.66.55,1.43,1.43,0,0,1-.72-.15.93.93,0,0,1-.35-.55,3.4,3.4,0,0,1-2,.7,1.71,1.71,0,0,1-1.22-.48,1.5,1.5,0,0,1-.52-1.15,1.77,1.77,0,0,1,.51-1.34,4.25,4.25,0,0,1,1.78-.86l1.4-.41v-.31q0-1-1.17-1a2.86,2.86,0,0,0-1.19.27,3.73,3.73,0,0,0-1.08.81v-1.55A4,4,0,0,1,303.14,205ZM302.08,210a.77.77,0,0,0,.23.58.78.78,0,0,0,.57.22,1.69,1.69,0,0,0,1.14-.52v-1.74a8.67,8.67,0,0,0-1.14.47,2,2,0,0,0-.6.44A.83.83,0,0,0,302.08,210Z" transform="translate(0 -2.17)"/><path d="M309.48,201.89v3.69a3.07,3.07,0,0,1,3.32-.12,2.85,2.85,0,0,1,1.1,1.2,3.75,3.75,0,0,1,.39,1.72,3.41,3.41,0,0,1-1,2.56,3.68,3.68,0,0,1-2.65.93,8,8,0,0,1-2.93-.55v-9.43Zm0,8.48a4,4,0,0,0,1.3.19,1.55,1.55,0,0,0,1.27-.58,2.53,2.53,0,0,0,.46-1.61,2.2,2.2,0,0,0-.47-1.49,1.55,1.55,0,0,0-1.25-.55,1.59,1.59,0,0,0-.66.13,2.94,2.94,0,0,0-.65.42Z" transform="translate(0 -2.17)"/><path d="M316.6,202.11a1,1,0,0,1,1,1,1,1,0,0,1-.29.69.94.94,0,0,1-1.38,0,1,1,0,0,1-.29-.69.94.94,0,0,1,.29-.69A1,1,0,0,1,316.6,202.11Zm.87,3v6.59h-1.74v-6.59Z" transform="translate(0 -2.17)"/><path d="M321.05,201.89v9.86h-1.74v-9.86Z" transform="translate(0 -2.17)"/><path d="M323.76,202.11a.94.94,0,0,1,.69.29.91.91,0,0,1,.29.69,1,1,0,0,1-.28.69.92.92,0,0,1-.7.3.91.91,0,0,1-.68-.3,1,1,0,0,1-.3-.69.92.92,0,0,1,.3-.69A1,1,0,0,1,323.76,202.11Zm.87,3v6.59H322.9v-6.59Z" transform="translate(0 -2.17)"/><path d="M328.23,203.41h.14v1.75h2.26v1.31h-2.26v3a.93.93,0,0,0,1,1,3,3,0,0,0,1.4-.43v1.39a4.52,4.52,0,0,1-1.77.41,2.38,2.38,0,0,1-1.73-.6,2.2,2.2,0,0,1-.63-1.65v-3.15h-1v-.28Z" transform="translate(0 -2.17)"/><path d="M332.78,205.16l1.56,3.54,1.57-3.54h1.87l-4.55,9.91h-1.86l2.09-4.54-2.56-5.37Z" transform="translate(0 -2.17)"/><circle class="cls-6" cx="13.7" cy="355.96" r="3.5"/><circle class="cls-7" cx="175.2" cy="197.46" r="137"/><path class="cls-8" d="M46.52,94.92v5.74a3.21,3.21,0,0,0,.26,1.4,2.06,2.06,0,0,0,.87.86,2.74,2.74,0,0,0,1.4.34,3.2,3.2,0,0,0,1.48-.32,2,2,0,0,0,.89-.87,3.42,3.42,0,0,0,.28-1.54V94.92h1.91v5.86a3.93,3.93,0,0,1-1.19,3.06,4.9,4.9,0,0,1-3.37,1.06,5.46,5.46,0,0,1-2.38-.48A3.49,3.49,0,0,1,45.14,103a4.27,4.27,0,0,1-.53-2.16V94.92Z" transform="translate(0 -2.17)"/><path class="cls-8" d="M59.31,98.06a2.16,2.16,0,0,1,1.69.7,2.61,2.61,0,0,1,.63,1.83v4.19H59.9v-4a1.52,1.52,0,0,0-.31-1,1,1,0,0,0-.83-.37,1.33,1.33,0,0,0-.76.23,3.63,3.63,0,0,0-.77.79v4.38H55.49V98.19h1.74v.92a3.06,3.06,0,0,1,1-.8A2.4,2.4,0,0,1,59.31,98.06Z" transform="translate(0 -2.17)"/><path class="cls-8" d="M66.47,98.06a4.73,4.73,0,0,1,2.08.45V100a3.48,3.48,0,0,0-1.75-.53,2,2,0,0,0-1.46.55,2.26,2.26,0,0,0,0,3,2.07,2.07,0,0,0,1.51.56,4.78,4.78,0,0,0,1.81-.47v1.41a5.54,5.54,0,0,1-2.11.41A3.68,3.68,0,0,1,64,104a3.13,3.13,0,0,1-1-2.44,3.41,3.41,0,0,1,1-2.53A3.45,3.45,0,0,1,66.47,98.06Z" transform="translate(0 -2.17)"/><path class="cls-8" d="M73.23,98.06a4.12,4.12,0,0,1,1.87.43,3.17,3.17,0,0,1,1.3,1.21,3.44,3.44,0,0,1,.45,1.76,3.49,3.49,0,0,1-.44,1.79,3.09,3.09,0,0,1-1.29,1.21,4,4,0,0,1-1.89.44,3.92,3.92,0,0,1-1.88-.44,3.09,3.09,0,0,1-1.29-1.21,3.6,3.6,0,0,1-.44-1.79,3.34,3.34,0,0,1,.46-1.77,3.14,3.14,0,0,1,1.3-1.2A4.06,4.06,0,0,1,73.23,98.06Zm-1.79,3.4a2.41,2.41,0,0,0,.48,1.57,1.59,1.59,0,0,0,1.29.59,1.7,1.7,0,0,0,1.34-.56,2.45,2.45,0,0,0,.48-1.62,2.24,2.24,0,0,0-.49-1.55,1.7,1.7,0,0,0-1.33-.54,1.6,1.6,0,0,0-1.28.58A2.25,2.25,0,0,0,71.44,101.46Z" transform="translate(0 -2.17)"/><path class="cls-8" d="M82.06,98.06a2.16,2.16,0,0,1,1.69.7,2.61,2.61,0,0,1,.63,1.83v4.19H82.65v-4a1.52,1.52,0,0,0-.31-1,1,1,0,0,0-.83-.37,1.33,1.33,0,0,0-.76.23,3.63,3.63,0,0,0-.77.79v4.38H78.24V98.19H80v.92a3.17,3.17,0,0,1,1-.8A2.4,2.4,0,0,1,82.06,98.06Z" transform="translate(0 -2.17)"/><path class="cls-8" d="M88.19,98.06a3.77,3.77,0,0,1,1,.13,4.74,4.74,0,0,1,1,.39V100a5.1,5.1,0,0,0-1-.51,3.21,3.21,0,0,0-1-.2,1.09,1.09,0,0,0-.59.14.47.47,0,0,0-.21.41.41.41,0,0,0,.18.29,6,6,0,0,0,1,.54,6.42,6.42,0,0,1,1.59,1.06,1.64,1.64,0,0,1,.45,1.16,1.86,1.86,0,0,1-.66,1.5,2.75,2.75,0,0,1-1.79.54,5.56,5.56,0,0,1-1.32-.15,4.49,4.49,0,0,1-1-.37v-1.45a4.64,4.64,0,0,0,2.14.7,1.47,1.47,0,0,0,.71-.15.48.48,0,0,0,.28-.42.45.45,0,0,0-.1-.29,1.28,1.28,0,0,0-.29-.26c-.14-.09-.55-.3-1.24-.64a3.54,3.54,0,0,1-1.18-.83,1.6,1.6,0,0,1-.38-1.06,1.68,1.68,0,0,1,.69-1.4A2.9,2.9,0,0,1,88.19,98.06Z" transform="translate(0 -2.17)"/><path class="cls-8" d="M93.7,96.44h.14v1.75h2.25V99.5H93.84v3a.93.93,0,0,0,1,1,3,3,0,0,0,1.39-.44v1.39a4.27,4.27,0,0,1-1.76.41,2.42,2.42,0,0,1-1.74-.6,2.22,2.22,0,0,1-.62-1.65V99.5h-1v-.28Z" transform="translate(0 -2.17)"/><path class="cls-8" d="M101,98.06a1.51,1.51,0,0,1,.68.16,4,4,0,0,1,.78.52l-.62,1.52a2.3,2.3,0,0,0-1.22-.57,1.3,1.3,0,0,0-.79.3,2.2,2.2,0,0,0-.63.8,2.3,2.3,0,0,0-.23,1v3H97.22V98.19H99v1.68h0a4.37,4.37,0,0,1,1-1.38A1.57,1.57,0,0,1,101,98.06Z" transform="translate(0 -2.17)"/><path class="cls-8" d="M105.63,98.06a3,3,0,0,1,1.94.54,1.82,1.82,0,0,1,.67,1.51v3.22c0,.25.1.38.3.38a1,1,0,0,0,.36-.11,1.92,1.92,0,0,0,.38-.25v1a3.22,3.22,0,0,1-1.66.55,1.43,1.43,0,0,1-.72-.15.86.86,0,0,1-.35-.55,3.42,3.42,0,0,1-2,.7,1.73,1.73,0,0,1-1.23-.48,1.52,1.52,0,0,1-.51-1.15,1.79,1.79,0,0,1,.51-1.34,4.25,4.25,0,0,1,1.78-.86l1.4-.41v-.3c0-.65-.39-1-1.17-1a2.82,2.82,0,0,0-1.19.27,3.37,3.37,0,0,0-1.08.82V98.92A4,4,0,0,1,105.63,98.06Zm-1.06,5a.77.77,0,0,0,.8.8,1.69,1.69,0,0,0,1.14-.52v-1.74a8.67,8.67,0,0,0-1.14.47,2.29,2.29,0,0,0-.61.44A.87.87,0,0,0,104.57,103Z" transform="translate(0 -2.17)"/><path class="cls-8" d="M111.16,95.14a.94.94,0,0,1,.69.29,1,1,0,0,1,0,1.38.92.92,0,0,1-.69.3.93.93,0,0,1-.69-.3,1,1,0,0,1-.29-.69.94.94,0,0,1,.29-.69A1,1,0,0,1,111.16,95.14Zm.87,3v6.59h-1.74V98.19Z" transform="translate(0 -2.17)"/><path class="cls-8" d="M117.63,98.06a2.15,2.15,0,0,1,1.69.7,2.61,2.61,0,0,1,.63,1.83v4.19h-1.72v-4a1.58,1.58,0,0,0-.31-1,1,1,0,0,0-.84-.37,1.28,1.28,0,0,0-.75.23,3.42,3.42,0,0,0-.78.79v4.38h-1.73V98.19h1.73v.92a3.09,3.09,0,0,1,1-.8A2.36,2.36,0,0,1,117.63,98.06Z" transform="translate(0 -2.17)"/><path class="cls-8" d="M124.58,98.06a3,3,0,0,1,2.3.93,3.71,3.71,0,0,1,.84,2.58v.26h-4.66a2,2,0,0,0,.66,1.36,2.3,2.3,0,0,0,1.52.47,3.48,3.48,0,0,0,1.2-.21,5.65,5.65,0,0,0,1.19-.65v1.29a4.8,4.8,0,0,1-2.81.81,3.57,3.57,0,0,1-2.55-.93,3.28,3.28,0,0,1-1-2.5A3.38,3.38,0,0,1,122.2,99,3.13,3.13,0,0,1,124.58,98.06Zm1.52,2.72a2,2,0,0,0-.44-1.13,1.3,1.3,0,0,0-1-.4,1.42,1.42,0,0,0-1.05.39,1.87,1.87,0,0,0-.51,1.14Z" transform="translate(0 -2.17)"/><path class="cls-8" d="M133.54,98.34V94.92h1.72v9.86h-3a3.52,3.52,0,0,1-2.53-.91,3.31,3.31,0,0,1-.95-2.49,3.35,3.35,0,0,1,.44-1.69,3.21,3.21,0,0,1,1.21-1.19,3.39,3.39,0,0,1,1.67-.44A4.38,4.38,0,0,1,133.54,98.34Zm-.91,5.11h.91V99.64a2.35,2.35,0,0,0-1.12-.28,1.81,1.81,0,0,0-1.38.54,2,2,0,0,0-.52,1.43A1.87,1.87,0,0,0,132.63,103.45Z" transform="translate(0 -2.17)"/><path class="cls-8" d="M67.34,112.13a6.88,6.88,0,0,1,1.64.19,8.18,8.18,0,0,1,1.74.65v1.79A7.94,7.94,0,0,0,69,114a5.48,5.48,0,0,0-1.62-.24,4.05,4.05,0,0,0-1.89.44,3.12,3.12,0,0,0-1.32,1.22,3.55,3.55,0,0,0,0,3.53,3.19,3.19,0,0,0,1.31,1.21,4.21,4.21,0,0,0,1.9.42,4.93,4.93,0,0,0,1.55-.23,10.54,10.54,0,0,0,1.86-.84v1.79a9,9,0,0,1-1.76.72,7.5,7.5,0,0,1-1.88.21,6.08,6.08,0,0,1-2.78-.62,4.7,4.7,0,0,1-1.93-1.79,4.86,4.86,0,0,1-.7-2.56,5,5,0,0,1,.72-2.67,4.82,4.82,0,0,1,2-1.83A6.16,6.16,0,0,1,67.34,112.13Z" transform="translate(0 -2.17)"/><path class="cls-8" d="M75.69,115.4a4,4,0,0,1,1.87.43,3.08,3.08,0,0,1,1.3,1.2,3.45,3.45,0,0,1,.46,1.76,3.57,3.57,0,0,1-.44,1.79,3.11,3.11,0,0,1-1.3,1.21,4,4,0,0,1-1.89.45,3.93,3.93,0,0,1-1.88-.45,3,3,0,0,1-1.29-1.21,3.57,3.57,0,0,1-.44-1.79,3.19,3.19,0,0,1,1.76-3A4.06,4.06,0,0,1,75.69,115.4Zm-1.79,3.39a2.39,2.39,0,0,0,.48,1.57,1.58,1.58,0,0,0,1.3.59,1.65,1.65,0,0,0,1.33-.56,2.45,2.45,0,0,0,.49-1.62,2.26,2.26,0,0,0-.49-1.54,1.69,1.69,0,0,0-1.33-.55,1.61,1.61,0,0,0-1.29.58A2.25,2.25,0,0,0,73.9,118.79Z" transform="translate(0 -2.17)"/><path class="cls-8" d="M84.52,115.4a2.22,2.22,0,0,1,1.29.35,2.16,2.16,0,0,1,.78,1,4.31,4.31,0,0,1,1.11-1,2.43,2.43,0,0,1,1.22-.31,2.19,2.19,0,0,1,1.69.68,2.56,2.56,0,0,1,.64,1.81v4.22H89.51v-3.93a1.77,1.77,0,0,0-.29-1.08,1,1,0,0,0-.85-.39,2,2,0,0,0-1.53,1v4.38H85.11v-4a1.63,1.63,0,0,0-.31-1.06,1,1,0,0,0-.83-.38,1.38,1.38,0,0,0-.78.24,3.53,3.53,0,0,0-.75.78v4.38H80.71v-6.59h1.73v.93a3.3,3.3,0,0,1,1-.8A2.37,2.37,0,0,1,84.52,115.4Z" transform="translate(0 -2.17)"/><path class="cls-8" d="M96.32,115.4a2.91,2.91,0,0,1,2.27.94,3.49,3.49,0,0,1,.87,2.46,3.8,3.8,0,0,1-.41,1.78,2.94,2.94,0,0,1-1.15,1.22,3.3,3.3,0,0,1-1.69.44,3.42,3.42,0,0,1-1.55-.39v3.58H92.93v-9.91h1.72V116A2.83,2.83,0,0,1,96.32,115.4Zm-1.66,5.18a2.47,2.47,0,0,0,1.22.37,1.63,1.63,0,0,0,1.31-.58,2.27,2.27,0,0,0,.49-1.51,2.56,2.56,0,0,0-.44-1.58,1.48,1.48,0,0,0-1.25-.57,1.7,1.7,0,0,0-.59.1,3.45,3.45,0,0,0-.74.43Z" transform="translate(0 -2.17)"/><path class="cls-8" d="M102.63,112.26v9.85H100.9v-9.85Z" transform="translate(0 -2.17)"/><path class="cls-8" d="M107.37,115.4a3,3,0,0,1,2.3.93,3.7,3.7,0,0,1,.85,2.57v.26h-4.67a2.12,2.12,0,0,0,.66,1.36A2.25,2.25,0,0,0,108,121a3.45,3.45,0,0,0,1.2-.22,5.23,5.23,0,0,0,1.19-.65v1.29a4.78,4.78,0,0,1-2.81.82,3.58,3.58,0,0,1-2.55-.94,3.32,3.32,0,0,1-1-2.5,3.38,3.38,0,0,1,.91-2.45A3.13,3.13,0,0,1,107.37,115.4Zm1.52,2.71a1.94,1.94,0,0,0-.44-1.12,1.29,1.29,0,0,0-1-.41,1.42,1.42,0,0,0-1,.39,1.89,1.89,0,0,0-.51,1.14Z" transform="translate(0 -2.17)"/><path class="cls-8" d="M113.12,115.52l1.64,2.07,1.58-2.07h2.08l-2.64,3.24,2.84,3.35h-2.08l-1.78-2.18-1.7,2.18h-2l2.73-3.35L111,115.52Z" transform="translate(0 -2.17)"/><path class="cls-9" d="M228.53,94.21a6.88,6.88,0,0,1,1.64.19,8.18,8.18,0,0,1,1.74.65v1.79a7.94,7.94,0,0,0-1.68-.75,5.41,5.41,0,0,0-1.61-.24,4.09,4.09,0,0,0-1.9.44,3.18,3.18,0,0,0-1.32,1.22,3.55,3.55,0,0,0,0,3.53,3.19,3.19,0,0,0,1.31,1.21,4.25,4.25,0,0,0,1.91.42,4.91,4.91,0,0,0,1.54-.23,10.23,10.23,0,0,0,1.86-.84v1.79a8.1,8.1,0,0,1-1.76.71,7,7,0,0,1-1.88.22,6.11,6.11,0,0,1-2.78-.62,4.7,4.7,0,0,1-1.93-1.79,4.86,4.86,0,0,1-.7-2.56,5,5,0,0,1,.72-2.67,4.82,4.82,0,0,1,2-1.83A6.16,6.16,0,0,1,228.53,94.21Z" transform="translate(0 -2.17)"/><path class="cls-9" d="M236.88,97.48a4,4,0,0,1,1.87.43,3.08,3.08,0,0,1,1.3,1.2,3.45,3.45,0,0,1,.46,1.76,3.57,3.57,0,0,1-.44,1.79,3.11,3.11,0,0,1-1.3,1.21,4,4,0,0,1-1.89.45,3.93,3.93,0,0,1-1.88-.45,3.08,3.08,0,0,1-1.29-1.21,3.57,3.57,0,0,1-.44-1.79,3.37,3.37,0,0,1,.47-1.77A3.25,3.25,0,0,1,235,97.9,4.09,4.09,0,0,1,236.88,97.48Zm-1.79,3.39a2.39,2.39,0,0,0,.48,1.57,1.59,1.59,0,0,0,1.3.59,1.68,1.68,0,0,0,1.33-.56,2.39,2.39,0,0,0,.49-1.62,2.26,2.26,0,0,0-.49-1.54,1.69,1.69,0,0,0-1.33-.55,1.61,1.61,0,0,0-1.29.58A2.25,2.25,0,0,0,235.09,100.87Z" transform="translate(0 -2.17)"/><path class="cls-9" d="M245.71,97.48a2.17,2.17,0,0,1,1.69.69A2.61,2.61,0,0,1,248,100v4.19H246.3v-4a1.59,1.59,0,0,0-.3-1,1,1,0,0,0-.84-.37,1.35,1.35,0,0,0-.75.23,3.42,3.42,0,0,0-.78.79v4.38H241.9V97.6h1.73v.93a3,3,0,0,1,1-.81A2.49,2.49,0,0,1,245.71,97.48Z" transform="translate(0 -2.17)"/><path class="cls-9" d="M251.85,97.48a4.19,4.19,0,0,1,1,.12,5,5,0,0,1,1,.39v1.39a5.17,5.17,0,0,0-1.06-.51,3.16,3.16,0,0,0-1-.2,1,1,0,0,0-.59.15.44.44,0,0,0-.21.4.39.39,0,0,0,.18.29,7,7,0,0,0,1,.55,5.91,5.91,0,0,1,1.58,1,1.64,1.64,0,0,1,.45,1.16,1.83,1.83,0,0,1-.66,1.5,2.75,2.75,0,0,1-1.79.55,5.55,5.55,0,0,1-1.32-.16,4.68,4.68,0,0,1-1-.37v-1.45a4.68,4.68,0,0,0,2.14.71,1.53,1.53,0,0,0,.72-.16.48.48,0,0,0,.27-.42.42.42,0,0,0-.1-.28,1.08,1.08,0,0,0-.29-.26c-.13-.09-.55-.31-1.24-.65a3.51,3.51,0,0,1-1.17-.82,1.58,1.58,0,0,1-.38-1.07,1.65,1.65,0,0,1,.68-1.39A2.87,2.87,0,0,1,251.85,97.48Z" transform="translate(0 -2.17)"/><path class="cls-9" d="M257.35,95.85h.14V97.6h2.26v1.31h-2.26v3a1,1,0,0,0,.27.72,1,1,0,0,0,.73.28,3,3,0,0,0,1.4-.44v1.39a4.38,4.38,0,0,1-1.77.42,2.38,2.38,0,0,1-1.73-.61,2.16,2.16,0,0,1-.63-1.64V98.91h-1v-.28Z" transform="translate(0 -2.17)"/><path class="cls-9" d="M264.64,97.48a1.64,1.64,0,0,1,.68.15,3.5,3.5,0,0,1,.78.52l-.62,1.52a2.27,2.27,0,0,0-1.21-.57,1.33,1.33,0,0,0-.8.3,2.08,2.08,0,0,0-.62.8,2.25,2.25,0,0,0-.24,1v3h-1.73V97.6h1.73v1.68h0a4.62,4.62,0,0,1,.95-1.38A1.56,1.56,0,0,1,264.64,97.48Z" transform="translate(0 -2.17)"/><path class="cls-9" d="M269.28,97.48a3.09,3.09,0,0,1,1.94.53,1.83,1.83,0,0,1,.67,1.51v3.22c0,.25.1.38.3.38a.94.94,0,0,0,.36-.11,1.87,1.87,0,0,0,.39-.25v1a3.31,3.31,0,0,1-1.67.56,1.36,1.36,0,0,1-.71-.16.82.82,0,0,1-.35-.55,3.46,3.46,0,0,1-2,.71,1.72,1.72,0,0,1-1.22-.48,1.53,1.53,0,0,1-.51-1.15,1.79,1.79,0,0,1,.5-1.35,4.25,4.25,0,0,1,1.78-.86l1.4-.41v-.3c0-.65-.39-1-1.17-1a2.73,2.73,0,0,0-1.19.28,3.41,3.41,0,0,0-1.08.81V98.33A4,4,0,0,1,269.28,97.48Zm-1.06,5a.75.75,0,0,0,.23.57.8.8,0,0,0,.57.22,1.69,1.69,0,0,0,1.14-.52V101a8.84,8.84,0,0,0-1.14.46,2.22,2.22,0,0,0-.6.45A.81.81,0,0,0,268.22,102.43Z" transform="translate(0 -2.17)"/><path class="cls-9" d="M274.81,94.56a1,1,0,0,1,1,1,1,1,0,0,1-.28.68.94.94,0,0,1-.7.3,1,1,0,0,1-.69-.3,1,1,0,0,1-.29-.68,1,1,0,0,1,1-1Zm.87,3v6.59h-1.74V97.6Z" transform="translate(0 -2.17)"/><path class="cls-9" d="M281.29,97.48a2.16,2.16,0,0,1,1.68.69,2.57,2.57,0,0,1,.64,1.83v4.19h-1.73v-4a1.53,1.53,0,0,0-.31-1,1,1,0,0,0-.83-.37A1.41,1.41,0,0,0,280,99a3.63,3.63,0,0,0-.77.79v4.38h-1.74V97.6h1.74v.93a2.88,2.88,0,0,1,1-.81A2.5,2.5,0,0,1,281.29,97.48Z" transform="translate(0 -2.17)"/><path class="cls-9" d="M288.23,97.48a3,3,0,0,1,2.3.93,3.64,3.64,0,0,1,.85,2.57v.26h-4.66a2,2,0,0,0,.66,1.36,2.22,2.22,0,0,0,1.52.48,3.44,3.44,0,0,0,1.19-.22,5.23,5.23,0,0,0,1.19-.65v1.29a4.78,4.78,0,0,1-2.81.82,3.54,3.54,0,0,1-2.54-.94,3.29,3.29,0,0,1-1-2.5,3.38,3.38,0,0,1,.91-2.45A3.13,3.13,0,0,1,288.23,97.48Zm1.52,2.71a1.87,1.87,0,0,0-.44-1.12,1.29,1.29,0,0,0-1-.41,1.43,1.43,0,0,0-1.05.39,1.89,1.89,0,0,0-.51,1.14Z" transform="translate(0 -2.17)"/><path class="cls-9" d="M297.19,97.75V94.34h1.73v9.85h-3.05a3.49,3.49,0,0,1-2.53-.91,3.28,3.28,0,0,1-.95-2.48,3.39,3.39,0,0,1,.44-1.7,3.24,3.24,0,0,1,1.22-1.19,3.33,3.33,0,0,1,1.67-.43A4.5,4.5,0,0,1,297.19,97.75Zm-.91,5.11h.91V99.05a2.34,2.34,0,0,0-1.11-.28,1.8,1.8,0,0,0-1.39.55,1.94,1.94,0,0,0-.52,1.42A1.87,1.87,0,0,0,296.28,102.86Z" transform="translate(0 -2.17)"/><path class="cls-9" d="M238.5,111.54a7.59,7.59,0,0,1,1.65.19,8.92,8.92,0,0,1,1.73.65v1.79a8,8,0,0,0-1.68-.75,5.36,5.36,0,0,0-1.61-.23,4.12,4.12,0,0,0-1.9.43,3.22,3.22,0,0,0-1.31,1.22,3.34,3.34,0,0,0-.47,1.76,3.39,3.39,0,0,0,.46,1.77,3.19,3.19,0,0,0,1.31,1.21,4.26,4.26,0,0,0,1.91.43,5,5,0,0,0,1.55-.24,10.54,10.54,0,0,0,1.86-.84v1.8a8.71,8.71,0,0,1-1.77.71,7.41,7.41,0,0,1-1.87.21,6.16,6.16,0,0,1-2.79-.62,4.7,4.7,0,0,1-1.93-1.79,4.86,4.86,0,0,1-.7-2.56,5,5,0,0,1,.72-2.67,4.88,4.88,0,0,1,2-1.83A6.35,6.35,0,0,1,238.5,111.54Z" transform="translate(0 -2.17)"/><path class="cls-9" d="M246.85,114.81a4,4,0,0,1,1.87.43,3.09,3.09,0,0,1,1.3,1.2,3.38,3.38,0,0,1,.46,1.76A3.57,3.57,0,0,1,250,120a3.05,3.05,0,0,1-1.3,1.21,4,4,0,0,1-1.89.45,4,4,0,0,1-1.88-.45,3.14,3.14,0,0,1-1.29-1.21,3.57,3.57,0,0,1-.44-1.79,3.39,3.39,0,0,1,.47-1.77,3.21,3.21,0,0,1,1.3-1.2A4,4,0,0,1,246.85,114.81Zm-1.79,3.39a2.39,2.39,0,0,0,.49,1.58,1.59,1.59,0,0,0,1.29.59,1.65,1.65,0,0,0,1.33-.57,2.37,2.37,0,0,0,.49-1.61,2.22,2.22,0,0,0-.49-1.55,1.69,1.69,0,0,0-1.33-.55,1.59,1.59,0,0,0-1.28.58A2.29,2.29,0,0,0,245.06,118.2Z" transform="translate(0 -2.17)"/><path class="cls-9" d="M255.68,114.81a2.3,2.3,0,0,1,1.29.35,2.26,2.26,0,0,1,.79,1,4,4,0,0,1,1.11-1,2.41,2.41,0,0,1,1.22-.31,2.19,2.19,0,0,1,1.68.68,2.52,2.52,0,0,1,.64,1.81v4.22h-1.73v-3.93a1.84,1.84,0,0,0-.29-1.08,1,1,0,0,0-.85-.39,2,2,0,0,0-1.54,1v4.38h-1.72v-4a1.7,1.7,0,0,0-.31-1.07,1,1,0,0,0-.84-.38,1.32,1.32,0,0,0-.77.24,3.78,3.78,0,0,0-.76.78v4.38h-1.73v-6.59h1.73v.93a3.52,3.52,0,0,1,1-.79A2.29,2.29,0,0,1,255.68,114.81Z" transform="translate(0 -2.17)"/><path class="cls-9" d="M267.48,114.81a3,3,0,0,1,2.28.94,3.53,3.53,0,0,1,.86,2.46,3.8,3.8,0,0,1-.4,1.78,3,3,0,0,1-1.16,1.22,3.27,3.27,0,0,1-1.69.44,3.38,3.38,0,0,1-1.54-.39v3.58h-1.74v-9.91h1.72v.43A2.83,2.83,0,0,1,267.48,114.81ZM265.83,120a2.43,2.43,0,0,0,1.21.38,1.64,1.64,0,0,0,1.31-.59,2.25,2.25,0,0,0,.5-1.51,2.5,2.5,0,0,0-.45-1.58,1.48,1.48,0,0,0-1.25-.57,1.61,1.61,0,0,0-.58.1,3,3,0,0,0-.74.44Z" transform="translate(0 -2.17)"/><path class="cls-9" d="M273.8,111.67v9.85h-1.74v-9.85Z" transform="translate(0 -2.17)"/><path class="cls-9" d="M278.54,114.81a2.94,2.94,0,0,1,2.29.93,3.66,3.66,0,0,1,.85,2.57v.26H277a2,2,0,0,0,.66,1.36,2.23,2.23,0,0,0,1.52.48,3.22,3.22,0,0,0,1.19-.22,5,5,0,0,0,1.19-.65v1.29a4.69,4.69,0,0,1-2.81.82,3.53,3.53,0,0,1-2.54-.94,3.28,3.28,0,0,1-1-2.5,3.42,3.42,0,0,1,.91-2.45A3.15,3.15,0,0,1,278.54,114.81Zm1.51,2.71a1.87,1.87,0,0,0-.44-1.12,1.28,1.28,0,0,0-1-.41,1.46,1.46,0,0,0-1.06.39,2,2,0,0,0-.5,1.14Z" transform="translate(0 -2.17)"/><path class="cls-9" d="M284.28,114.93l1.65,2.07,1.58-2.07h2.08l-2.65,3.24,2.84,3.35H287.7l-1.77-2.18-1.7,2.18h-2l2.73-3.35-2.73-3.24Z" transform="translate(0 -2.17)"/><path class="cls-10" d="M228.53,272.21a6.88,6.88,0,0,1,1.64.19,8.18,8.18,0,0,1,1.74.65v1.79a7.94,7.94,0,0,0-1.68-.75,5.41,5.41,0,0,0-1.61-.24,4.09,4.09,0,0,0-1.9.44,3.18,3.18,0,0,0-1.32,1.22,3.55,3.55,0,0,0,0,3.53,3.19,3.19,0,0,0,1.31,1.21,4.25,4.25,0,0,0,1.91.42,4.91,4.91,0,0,0,1.54-.23,10.23,10.23,0,0,0,1.86-.84v1.79a8.72,8.72,0,0,1-1.76.72,7.5,7.5,0,0,1-1.88.21,6.11,6.11,0,0,1-2.78-.62,4.7,4.7,0,0,1-1.93-1.79,4.86,4.86,0,0,1-.7-2.56,5,5,0,0,1,.72-2.67,4.82,4.82,0,0,1,2-1.83A6.16,6.16,0,0,1,228.53,272.21Z" transform="translate(0 -2.17)"/><path class="cls-10" d="M236.88,275.48a4,4,0,0,1,1.87.43,3.08,3.08,0,0,1,1.3,1.2,3.45,3.45,0,0,1,.46,1.76,3.57,3.57,0,0,1-.44,1.79,3.11,3.11,0,0,1-1.3,1.21,4,4,0,0,1-1.89.45,3.93,3.93,0,0,1-1.88-.45,3.08,3.08,0,0,1-1.29-1.21,3.57,3.57,0,0,1-.44-1.79,3.39,3.39,0,0,1,.47-1.77,3.25,3.25,0,0,1,1.29-1.2A4.09,4.09,0,0,1,236.88,275.48Zm-1.79,3.39a2.39,2.39,0,0,0,.48,1.57,1.59,1.59,0,0,0,1.3.59,1.65,1.65,0,0,0,1.33-.56,2.39,2.39,0,0,0,.49-1.62,2.26,2.26,0,0,0-.49-1.54,1.69,1.69,0,0,0-1.33-.55,1.61,1.61,0,0,0-1.29.58A2.25,2.25,0,0,0,235.09,278.87Z" transform="translate(0 -2.17)"/><path class="cls-10" d="M245.71,275.48a2.17,2.17,0,0,1,1.69.69A2.61,2.61,0,0,1,248,278v4.19H246.3v-4a1.59,1.59,0,0,0-.3-1,1,1,0,0,0-.84-.37,1.35,1.35,0,0,0-.75.23,3.42,3.42,0,0,0-.78.79v4.38H241.9V275.6h1.73v.93a3,3,0,0,1,1-.81A2.49,2.49,0,0,1,245.71,275.48Z" transform="translate(0 -2.17)"/><path class="cls-10" d="M251.85,275.48a4.19,4.19,0,0,1,1,.12,5,5,0,0,1,1,.39v1.39a5.17,5.17,0,0,0-1.06-.51,3.16,3.16,0,0,0-1-.2,1,1,0,0,0-.59.15.44.44,0,0,0-.21.4.38.38,0,0,0,.18.29,7,7,0,0,0,1,.55,5.91,5.91,0,0,1,1.58,1.05,1.64,1.64,0,0,1,.45,1.16,1.83,1.83,0,0,1-.66,1.5,2.75,2.75,0,0,1-1.79.55,5.08,5.08,0,0,1-1.32-.16,4.68,4.68,0,0,1-1-.37v-1.45a4.68,4.68,0,0,0,2.14.71,1.53,1.53,0,0,0,.72-.16.48.48,0,0,0,.27-.42.42.42,0,0,0-.1-.28,1.08,1.08,0,0,0-.29-.26c-.13-.09-.55-.31-1.24-.65a3.51,3.51,0,0,1-1.17-.82,1.58,1.58,0,0,1-.38-1.07,1.65,1.65,0,0,1,.68-1.39A2.87,2.87,0,0,1,251.85,275.48Z" transform="translate(0 -2.17)"/><path class="cls-10" d="M257.35,273.85h.14v1.75h2.26v1.31h-2.26v3a1,1,0,0,0,.27.72,1,1,0,0,0,.73.28,3,3,0,0,0,1.4-.44v1.39a4.38,4.38,0,0,1-1.77.42,2.38,2.38,0,0,1-1.73-.61,2.16,2.16,0,0,1-.63-1.64v-3.16h-1v-.28Z" transform="translate(0 -2.17)"/><path class="cls-10" d="M264.64,275.48a1.64,1.64,0,0,1,.68.15,3.5,3.5,0,0,1,.78.52l-.62,1.52a2.27,2.27,0,0,0-1.21-.57,1.4,1.4,0,0,0-.8.3,2.08,2.08,0,0,0-.62.8,2.25,2.25,0,0,0-.24,1v3h-1.73V275.6h1.73v1.68h0a4.62,4.62,0,0,1,.95-1.38A1.56,1.56,0,0,1,264.64,275.48Z" transform="translate(0 -2.17)"/><path class="cls-10" d="M269.28,275.48a3,3,0,0,1,1.94.54,1.81,1.81,0,0,1,.67,1.5v3.22c0,.25.1.38.3.38a.94.94,0,0,0,.36-.11,1.87,1.87,0,0,0,.39-.25v1a3.31,3.31,0,0,1-1.67.56,1.27,1.27,0,0,1-.71-.16.8.8,0,0,1-.35-.55,3.46,3.46,0,0,1-2,.71,1.72,1.72,0,0,1-1.22-.48,1.53,1.53,0,0,1-.51-1.15,1.79,1.79,0,0,1,.5-1.35,4.25,4.25,0,0,1,1.78-.86l1.4-.41v-.3c0-.65-.39-1-1.17-1a2.73,2.73,0,0,0-1.19.28,3.41,3.41,0,0,0-1.08.81v-1.56A4,4,0,0,1,269.28,275.48Zm-1.06,4.95a.75.75,0,0,0,.23.57.8.8,0,0,0,.57.22,1.69,1.69,0,0,0,1.14-.52V279a8.84,8.84,0,0,0-1.14.46,2.22,2.22,0,0,0-.6.45A.81.81,0,0,0,268.22,280.43Z" transform="translate(0 -2.17)"/><path class="cls-10" d="M274.81,272.56a1,1,0,0,1,1,1,1,1,0,0,1-.28.68.94.94,0,0,1-.7.3,1,1,0,0,1-.69-.3,1,1,0,0,1-.29-.68,1,1,0,0,1,1-1Zm.87,3v6.59h-1.74V275.6Z" transform="translate(0 -2.17)"/><path class="cls-10" d="M281.29,275.48a2.16,2.16,0,0,1,1.68.69,2.57,2.57,0,0,1,.64,1.83v4.19h-1.73v-4a1.53,1.53,0,0,0-.31-1,1,1,0,0,0-.83-.37,1.41,1.41,0,0,0-.76.23,3.63,3.63,0,0,0-.77.79v4.38h-1.74V275.6h1.74v.93a2.88,2.88,0,0,1,1-.81A2.5,2.5,0,0,1,281.29,275.48Z" transform="translate(0 -2.17)"/><path class="cls-10" d="M288.23,275.48a3,3,0,0,1,2.3.93,3.66,3.66,0,0,1,.85,2.57v.26h-4.66a2,2,0,0,0,.66,1.36,2.22,2.22,0,0,0,1.52.48,3.44,3.44,0,0,0,1.19-.22,5.23,5.23,0,0,0,1.19-.65v1.29a4.78,4.78,0,0,1-2.81.82,3.54,3.54,0,0,1-2.54-.94,3.29,3.29,0,0,1-1-2.5,3.38,3.38,0,0,1,.91-2.45A3.13,3.13,0,0,1,288.23,275.48Zm1.52,2.71a1.87,1.87,0,0,0-.44-1.12,1.29,1.29,0,0,0-1-.41,1.43,1.43,0,0,0-1.05.39,1.89,1.89,0,0,0-.51,1.14Z" transform="translate(0 -2.17)"/><path class="cls-10" d="M297.19,275.75v-3.41h1.73v9.85h-3.05a3.49,3.49,0,0,1-2.53-.91,3.28,3.28,0,0,1-.95-2.48,3.39,3.39,0,0,1,.44-1.7,3.24,3.24,0,0,1,1.22-1.19,3.33,3.33,0,0,1,1.67-.43A4.5,4.5,0,0,1,297.19,275.75Zm-.91,5.11h.91v-3.81a2.47,2.47,0,0,0-1.11-.28,1.8,1.8,0,0,0-1.39.55,1.94,1.94,0,0,0-.52,1.42A1.87,1.87,0,0,0,296.28,280.86Z" transform="translate(0 -2.17)"/><path class="cls-10" d="M243.74,289.54a5.75,5.75,0,0,1,2.77.72V292a5.48,5.48,0,0,0-2.72-.92,1.91,1.91,0,0,0-1.12.28.87.87,0,0,0-.41.74c0,.38.25.72.76,1a16.9,16.9,0,0,0,1.63.79,4.74,4.74,0,0,1,1.75,1.27,2.74,2.74,0,0,1,.53,1.68,2.55,2.55,0,0,1-.91,2.05,3.53,3.53,0,0,1-2.37.78,5.49,5.49,0,0,1-1.62-.21,7.26,7.26,0,0,1-1.53-.71v-1.88a4.79,4.79,0,0,0,3,1.31,1.9,1.9,0,0,0,1.12-.3.93.93,0,0,0,.43-.81,1.26,1.26,0,0,0-.74-1.11c-.42-.23-.95-.5-1.6-.81a4.64,4.64,0,0,1-1.74-1.24,2.47,2.47,0,0,1-.58-1.63,2.39,2.39,0,0,1,.93-2A3.8,3.8,0,0,1,243.74,289.54Z" transform="translate(0 -2.17)"/><path class="cls-10" d="M249.3,289.89a1,1,0,0,1,1,1,1,1,0,0,1-.28.69.94.94,0,0,1-.7.3,1,1,0,0,1-.69-.3,1,1,0,0,1-.29-.69.94.94,0,0,1,.3-.7A.93.93,0,0,1,249.3,289.89Zm.87,3.05v6.58h-1.74v-6.58Z" transform="translate(0 -2.17)"/><path class="cls-10" d="M255.78,292.81a2.29,2.29,0,0,1,1.28.35,2.19,2.19,0,0,1,.79,1,4,4,0,0,1,1.11-1,2.41,2.41,0,0,1,1.22-.31,2.19,2.19,0,0,1,1.68.68,2.53,2.53,0,0,1,.64,1.82v4.21h-1.73v-3.93a1.79,1.79,0,0,0-.29-1.07,1,1,0,0,0-.85-.4,2,2,0,0,0-1.53,1v4.38h-1.73v-3.95a1.7,1.7,0,0,0-.31-1.07,1,1,0,0,0-.83-.38,1.36,1.36,0,0,0-.78.24,3.52,3.52,0,0,0-.75.78v4.38H252v-6.58h1.74v.92a3.35,3.35,0,0,1,1-.79A2.3,2.3,0,0,1,255.78,292.81Z" transform="translate(0 -2.17)"/><path class="cls-10" d="M267.57,292.81a2.94,2.94,0,0,1,2.28.94,3.48,3.48,0,0,1,.86,2.46,3.8,3.8,0,0,1-.4,1.78,3,3,0,0,1-1.16,1.22,3.27,3.27,0,0,1-1.69.44,3.38,3.38,0,0,1-1.54-.39v3.58h-1.74v-9.9h1.72v.42A2.85,2.85,0,0,1,267.57,292.81ZM265.92,298a2.43,2.43,0,0,0,1.21.38,1.63,1.63,0,0,0,1.31-.59,2.25,2.25,0,0,0,.5-1.51,2.56,2.56,0,0,0-.44-1.58,1.51,1.51,0,0,0-1.26-.57,1.65,1.65,0,0,0-.58.1,3.34,3.34,0,0,0-.74.44Z" transform="translate(0 -2.17)"/><path class="cls-10" d="M273.89,289.67v9.85h-1.74v-9.85Z" transform="translate(0 -2.17)"/><path class="cls-10" d="M278.63,292.81a3,3,0,0,1,2.3.93,3.7,3.7,0,0,1,.84,2.57v.26h-4.66a2,2,0,0,0,.66,1.36,2.25,2.25,0,0,0,1.52.48,3.22,3.22,0,0,0,1.19-.22,5,5,0,0,0,1.19-.65v1.29a4.68,4.68,0,0,1-2.8.82,3.54,3.54,0,0,1-2.55-.94,3.28,3.28,0,0,1-1-2.5,3.4,3.4,0,0,1,.92-2.45A3.15,3.15,0,0,1,278.63,292.81Zm1.51,2.71a1.87,1.87,0,0,0-.43-1.12,1.32,1.32,0,0,0-1-.41,1.46,1.46,0,0,0-1.06.39,2,2,0,0,0-.5,1.14Z" transform="translate(0 -2.17)"/><path class="cls-6" d="M47.06,272.88v5.73a3.1,3.1,0,0,0,.27,1.41,2,2,0,0,0,.86.86,2.87,2.87,0,0,0,1.4.34,3.17,3.17,0,0,0,1.48-.32A2,2,0,0,0,52,280a3.39,3.39,0,0,0,.29-1.53v-5.61h1.9v5.85A3.9,3.9,0,0,1,53,281.79a4.9,4.9,0,0,1-3.37,1.07,5.35,5.35,0,0,1-2.38-.49,3.41,3.41,0,0,1-1.53-1.4,4.32,4.32,0,0,1-.53-2.16v-5.93Z" transform="translate(0 -2.17)"/><path class="cls-6" d="M59.85,276a2.19,2.19,0,0,1,1.69.69,2.64,2.64,0,0,1,.63,1.83v4.19H60.44v-4a1.54,1.54,0,0,0-.3-1,1,1,0,0,0-.84-.38,1.34,1.34,0,0,0-.76.24,3.78,3.78,0,0,0-.77.78v4.38H56v-6.58h1.74v.92a3.08,3.08,0,0,1,1-.81A2.53,2.53,0,0,1,59.85,276Z" transform="translate(0 -2.17)"/><path class="cls-6" d="M67,276a4.87,4.87,0,0,1,2.08.44v1.48a3.5,3.5,0,0,0-1.75-.54,2.1,2.1,0,0,0-1.45,3.54,2,2,0,0,0,1.51.57,4.93,4.93,0,0,0,1.81-.47v1.4a5.52,5.52,0,0,1-2.11.42,3.7,3.7,0,0,1-2.6-.92,3.16,3.16,0,0,1-1-2.43,3.39,3.39,0,0,1,1-2.53A3.45,3.45,0,0,1,67,276Z" transform="translate(0 -2.17)"/><path class="cls-6" d="M73.77,276a4,4,0,0,1,1.87.43,3.17,3.17,0,0,1,1.3,1.21,3.41,3.41,0,0,1,.46,1.75A3.57,3.57,0,0,1,77,281.2a3.13,3.13,0,0,1-1.3,1.22,4.11,4.11,0,0,1-1.89.44,4,4,0,0,1-1.88-.44,3.11,3.11,0,0,1-1.29-1.22,3.57,3.57,0,0,1-.44-1.79,3.33,3.33,0,0,1,.47-1.76,3.11,3.11,0,0,1,1.29-1.2A3.94,3.94,0,0,1,73.77,276ZM72,279.41a2.42,2.42,0,0,0,.48,1.58,1.62,1.62,0,0,0,1.3.59,1.65,1.65,0,0,0,1.33-.57,2.35,2.35,0,0,0,.49-1.61,2.27,2.27,0,0,0-.49-1.55,1.69,1.69,0,0,0-1.33-.55,1.64,1.64,0,0,0-1.29.58A2.29,2.29,0,0,0,72,279.41Z" transform="translate(0 -2.17)"/><path class="cls-6" d="M82.6,276a2.17,2.17,0,0,1,1.69.69,2.64,2.64,0,0,1,.63,1.83v4.19H83.19v-4a1.54,1.54,0,0,0-.3-1,1,1,0,0,0-.84-.38,1.29,1.29,0,0,0-.75.24,3.56,3.56,0,0,0-.78.78v4.38H78.79v-6.58h1.73v.92a3.08,3.08,0,0,1,1-.81A2.56,2.56,0,0,1,82.6,276Z" transform="translate(0 -2.17)"/><path class="cls-6" d="M88.74,276a4.19,4.19,0,0,1,1,.12,6.57,6.57,0,0,1,1,.39v1.39a5.17,5.17,0,0,0-1.06-.51,3.12,3.12,0,0,0-1-.19,1.09,1.09,0,0,0-.59.14.45.45,0,0,0-.21.4.41.41,0,0,0,.18.3,6.55,6.55,0,0,0,1,.54,6,6,0,0,1,1.59,1,1.66,1.66,0,0,1,.45,1.16,1.83,1.83,0,0,1-.66,1.5,2.7,2.7,0,0,1-1.79.55,5.56,5.56,0,0,1-1.32-.15,4.65,4.65,0,0,1-1-.38v-1.44a4.64,4.64,0,0,0,2.14.7,1.42,1.42,0,0,0,.72-.16.46.46,0,0,0,.27-.42.42.42,0,0,0-.1-.28,1.28,1.28,0,0,0-.29-.26c-.13-.09-.55-.3-1.24-.64a3.52,3.52,0,0,1-1.17-.83,1.56,1.56,0,0,1-.39-1.06,1.66,1.66,0,0,1,.69-1.4A2.87,2.87,0,0,1,88.74,276Z" transform="translate(0 -2.17)"/><path class="cls-6" d="M94.24,274.4h.14v1.75h2.26v1.31H94.38v3a1,1,0,0,0,.27.72,1,1,0,0,0,.73.27,2.89,2.89,0,0,0,1.4-.44v1.39a4.38,4.38,0,0,1-1.77.42,2.34,2.34,0,0,1-1.73-.61,2.16,2.16,0,0,1-.63-1.64v-3.15h-1v-.28Z" transform="translate(0 -2.17)"/><path class="cls-6" d="M101.53,276a1.64,1.64,0,0,1,.68.15,4.14,4.14,0,0,1,.78.53l-.62,1.51a2.32,2.32,0,0,0-1.21-.56,1.31,1.31,0,0,0-.8.3,2,2,0,0,0-.62.79,2.25,2.25,0,0,0-.24,1v3H97.76v-6.58H99.5v1.67h0a4.43,4.43,0,0,1,1-1.37A1.53,1.53,0,0,1,101.53,276Z" transform="translate(0 -2.17)"/><path class="cls-6" d="M106.17,276a3,3,0,0,1,1.94.54,1.81,1.81,0,0,1,.67,1.5v3.23c0,.25.1.37.3.37a.94.94,0,0,0,.36-.11,1.32,1.32,0,0,0,.38-.25v1a3.24,3.24,0,0,1-1.66.56,1.43,1.43,0,0,1-.72-.15.87.87,0,0,1-.34-.55,3.45,3.45,0,0,1-2,.7,1.71,1.71,0,0,1-1.22-.48,1.5,1.5,0,0,1-.52-1.15,1.79,1.79,0,0,1,.51-1.35,4.51,4.51,0,0,1,1.78-.86l1.4-.41v-.3q0-1-1.17-1a2.82,2.82,0,0,0-1.19.27,3.41,3.41,0,0,0-1.08.81v-1.56A4,4,0,0,1,106.17,276Zm-1.06,5a.78.78,0,0,0,.23.58.83.83,0,0,0,.57.22,1.74,1.74,0,0,0,1.14-.52v-1.74a7.48,7.48,0,0,0-1.14.47,2,2,0,0,0-.6.44A.81.81,0,0,0,105.11,281Z" transform="translate(0 -2.17)"/><path class="cls-6" d="M111.7,273.1a1,1,0,0,1,1,1,1,1,0,0,1-.28.69,1,1,0,0,1-1.39,0,1,1,0,0,1-.29-.69.92.92,0,0,1,.3-.69A.9.9,0,0,1,111.7,273.1Zm.87,3v6.58h-1.74v-6.58Z" transform="translate(0 -2.17)"/><path class="cls-6" d="M118.18,276a2.16,2.16,0,0,1,1.68.69,2.6,2.6,0,0,1,.64,1.83v4.19h-1.73v-4a1.49,1.49,0,0,0-.31-1,1,1,0,0,0-.84-.38,1.33,1.33,0,0,0-.75.24,4.05,4.05,0,0,0-.78.78v4.38h-1.73v-6.58h1.73v.92a3,3,0,0,1,1-.81A2.5,2.5,0,0,1,118.18,276Z" transform="translate(0 -2.17)"/><path class="cls-6" d="M125.12,276a3,3,0,0,1,2.3.93,3.7,3.7,0,0,1,.85,2.57v.27h-4.66a2,2,0,0,0,.65,1.35,2.25,2.25,0,0,0,1.52.48,3.23,3.23,0,0,0,1.2-.22,5.23,5.23,0,0,0,1.19-.65V282a4.71,4.71,0,0,1-2.81.82,3.5,3.5,0,0,1-2.54-.94,3.27,3.27,0,0,1-1-2.49,3.4,3.4,0,0,1,.91-2.46A3.16,3.16,0,0,1,125.12,276Zm1.52,2.71a1.87,1.87,0,0,0-.44-1.12,1.29,1.29,0,0,0-1-.41,1.42,1.42,0,0,0-1,.39,1.89,1.89,0,0,0-.51,1.14Z" transform="translate(0 -2.17)"/><path class="cls-6" d="M134.08,276.29v-3.41h1.73v9.85h-3.05a3.49,3.49,0,0,1-2.53-.91,3.27,3.27,0,0,1-.95-2.48,3.35,3.35,0,0,1,.44-1.69,3.2,3.2,0,0,1,1.22-1.2,3.31,3.31,0,0,1,1.66-.43A4.51,4.51,0,0,1,134.08,276.29Zm-.91,5.12h.91v-3.82a2.46,2.46,0,0,0-1.12-.27,1.82,1.82,0,0,0-1.38.54,2,2,0,0,0-.52,1.42A1.87,1.87,0,0,0,133.17,281.41Z" transform="translate(0 -2.17)"/><path class="cls-6" d="M73.12,290.09a5.78,5.78,0,0,1,2.77.72v1.69a5.41,5.41,0,0,0-2.72-.93,2,2,0,0,0-1.12.28.88.88,0,0,0-.41.75c0,.37.25.71.76,1,.14.09.68.35,1.62.79a4.55,4.55,0,0,1,1.75,1.27,2.63,2.63,0,0,1,.54,1.67,2.55,2.55,0,0,1-.91,2.05,3.53,3.53,0,0,1-2.37.78A5.61,5.61,0,0,1,71.4,300a6.51,6.51,0,0,1-1.52-.71v-1.88a4.73,4.73,0,0,0,3,1.31,1.91,1.91,0,0,0,1.13-.3.93.93,0,0,0,.43-.8,1.28,1.28,0,0,0-.74-1.12c-.42-.22-1-.49-1.61-.81a4.66,4.66,0,0,1-1.73-1.23,2.49,2.49,0,0,1-.58-1.64,2.39,2.39,0,0,1,.93-2A3.77,3.77,0,0,1,73.12,290.09Z" transform="translate(0 -2.17)"/><path class="cls-6" d="M78.68,290.43a1,1,0,0,1,1,1,1,1,0,0,1-.29.69.92.92,0,0,1-.69.3,1,1,0,0,1-.69-.3,1,1,0,0,1-.29-.69.92.92,0,0,1,.3-.69A.94.94,0,0,1,78.68,290.43Zm.87,3.05v6.59H77.81v-6.59Z" transform="translate(0 -2.17)"/><path class="cls-6" d="M85.15,293.35a2.23,2.23,0,0,1,1.29.36,2.17,2.17,0,0,1,.79,1,4,4,0,0,1,1.11-1,2.41,2.41,0,0,1,1.22-.32,2.22,2.22,0,0,1,1.68.68,2.54,2.54,0,0,1,.64,1.82v4.22H90.15v-3.93a1.73,1.73,0,0,0-.3-1.08,1,1,0,0,0-.85-.4,2,2,0,0,0-1.53,1v4.38H85.75v-4a1.67,1.67,0,0,0-.31-1.06,1,1,0,0,0-.84-.39,1.27,1.27,0,0,0-.77.25,3.33,3.33,0,0,0-.76.78v4.38H81.34v-6.59h1.73v.92a3.72,3.72,0,0,1,1-.79A2.4,2.4,0,0,1,85.15,293.35Z" transform="translate(0 -2.17)"/><path class="cls-6" d="M97,293.35a3,3,0,0,1,2.28.95,3.53,3.53,0,0,1,.86,2.46,3.85,3.85,0,0,1-.4,1.78,3,3,0,0,1-1.16,1.22,3.29,3.29,0,0,1-1.69.43,3.5,3.5,0,0,1-1.54-.38v3.58H93.56v-9.91h1.72v.42A2.83,2.83,0,0,1,97,293.35Zm-1.65,5.19a2.51,2.51,0,0,0,1.21.37,1.64,1.64,0,0,0,1.31-.59,2.25,2.25,0,0,0,.49-1.51,2.51,2.51,0,0,0-.44-1.58,1.48,1.48,0,0,0-1.25-.57,1.62,1.62,0,0,0-.58.11,2.89,2.89,0,0,0-.74.43Z" transform="translate(0 -2.17)"/><path class="cls-6" d="M103.27,290.21v9.86h-1.74v-9.86Z" transform="translate(0 -2.17)"/><path class="cls-6" d="M108,293.35a3,3,0,0,1,2.3.93,3.67,3.67,0,0,1,.85,2.58v.26h-4.66a2,2,0,0,0,.66,1.36,2.28,2.28,0,0,0,1.52.47,3.43,3.43,0,0,0,1.19-.21,5.09,5.09,0,0,0,1.19-.66v1.29a4.71,4.71,0,0,1-2.81.82,3.53,3.53,0,0,1-2.54-.94,3.25,3.25,0,0,1-1-2.49,3.46,3.46,0,0,1,.91-2.46A3.18,3.18,0,0,1,108,293.35Zm1.52,2.72a1.91,1.91,0,0,0-.44-1.13,1.27,1.27,0,0,0-1-.4,1.5,1.5,0,0,0-1.06.38,2,2,0,0,0-.5,1.15Z" transform="translate(0 -2.17)"/></g></g></svg>