<svg id="Layer_1" data-name="Layer 1" xmlns="http://www.w3.org/2000/svg" viewBox="0 0 940 334"><defs><style>.cls-1{opacity:0.77;}.cls-2{fill:#191919;}.cls-3{fill:#0ea879;}.cls-4{fill:#6eccaf;}.cls-5{fill:#06b57b;}.cls-6{fill:#66d1b0;}.cls-7{fill:#0fa573;}.cls-8{fill:#6dccac;}.cls-9{fill:#0bad77;}.cls-10{fill:#0058a8;}</style></defs><g class="cls-1"><path class="cls-2" d="M68.69,265.48v4.83A22.92,22.92,0,0,1,57.53,273a17.2,17.2,0,0,1-8.73-2.07,15.18,15.18,0,0,1-5.67-5.69,15.44,15.44,0,0,1-2.08-7.84,15,15,0,0,1,4.78-11.27,16.36,16.36,0,0,1,11.78-4.57A27.71,27.71,0,0,1,68.36,244v4.73a21.18,21.18,0,0,0-10.53-3.08A12.16,12.16,0,0,0,49.08,249,11.77,11.77,0,0,0,49,265.66a12.27,12.27,0,0,0,8.77,3.25A20,20,0,0,0,68.69,265.48Z"/><path class="cls-2" d="M83.21,252.34a10.53,10.53,0,0,1,7.67,3,10,10,0,0,1,3.05,7.48,9.53,9.53,0,0,1-3.09,7.26A11,11,0,0,1,83,273,10.58,10.58,0,0,1,75.43,270a10.37,10.37,0,0,1,0-14.73A10.78,10.78,0,0,1,83.21,252.34Zm-.22,3.6a6.31,6.31,0,0,0-4.72,1.89,6.62,6.62,0,0,0-1.85,4.82,6.3,6.3,0,0,0,1.89,4.73,6.7,6.7,0,0,0,4.86,1.83A6.55,6.55,0,0,0,88,267.36a6.43,6.43,0,0,0,1.88-4.76,6.33,6.33,0,0,0-2-4.77A6.78,6.78,0,0,0,83,255.94Z"/><path class="cls-2" d="M114.94,257.92V272.6h-4V261.35c0-2.24-.3-3.81-.9-4.69a3.51,3.51,0,0,0-3.14-1.33,4.72,4.72,0,0,0-2.3.57,10,10,0,0,0-2.38,2V272.6h-4V252.38h4V255c2-2,4-3,6-3a6.56,6.56,0,0,1,6,3.65q3.21-3.7,6.7-3.7a6.19,6.19,0,0,1,4.85,2.16c1.26,1.43,1.9,3.62,1.9,6.57V272.6h-4v-12a6.2,6.2,0,0,0-1-3.86,3.49,3.49,0,0,0-3-1.34A6.14,6.14,0,0,0,114.94,257.92Z"/><path class="cls-2" d="M132.8,282.9V252.38h7c3.58,0,6.37.9,8.37,2.68a9.54,9.54,0,0,1,3,7.5,10.32,10.32,0,0,1-2.82,7.47,9.53,9.53,0,0,1-7.18,2.92,12.41,12.41,0,0,1-4.28-.86V282.9Zm6.92-26.78h-2.83v12.44a8.36,8.36,0,0,0,3.86.94,5.92,5.92,0,0,0,4.59-2,7.84,7.84,0,0,0,.95-8.52,5.13,5.13,0,0,0-2.31-2.21A10.29,10.29,0,0,0,139.72,256.12Z"/><path class="cls-2" d="M165.24,252.34a10.5,10.5,0,0,1,7.66,3A10,10,0,0,1,176,262.8a9.51,9.51,0,0,1-3.1,7.26,11,11,0,0,1-7.8,2.89,10.55,10.55,0,0,1-7.6-2.93,10.36,10.36,0,0,1,0-14.73A10.8,10.8,0,0,1,165.24,252.34Zm-.22,3.6a6.33,6.33,0,0,0-4.73,1.89,6.62,6.62,0,0,0-1.84,4.82,6.3,6.3,0,0,0,1.89,4.73,6.67,6.67,0,0,0,4.85,1.83,6.59,6.59,0,0,0,4.83-1.85,6.9,6.9,0,0,0-.08-9.53A6.82,6.82,0,0,0,165,255.94Z"/><path class="cls-2" d="M179.41,271.15v-4.31a18.26,18.26,0,0,0,3.46,1.92,8.1,8.1,0,0,0,3,.74,3.72,3.72,0,0,0,2.15-.61,1.78,1.78,0,0,0,.9-1.48,2,2,0,0,0-.58-1.46,13.42,13.42,0,0,0-2.52-1.68,17.65,17.65,0,0,1-5.06-3.68,5.28,5.28,0,0,1-1.2-3.33,4.67,4.67,0,0,1,1.81-3.8A7.19,7.19,0,0,1,186,252a12.79,12.79,0,0,1,6.09,1.67v4c-2.37-1.43-4.32-2.15-5.82-2.15a3.15,3.15,0,0,0-1.88.5,1.51,1.51,0,0,0-.72,1.3,1.91,1.91,0,0,0,.65,1.35,11.36,11.36,0,0,0,2.27,1.53L188,261q5.06,2.85,5.06,6.32a5,5,0,0,1-1.95,4.08,7.63,7.63,0,0,1-5,1.59,12.37,12.37,0,0,1-3.2-.38A21.73,21.73,0,0,1,179.41,271.15Z"/><path class="cls-2" d="M199.78,243.88a2.36,2.36,0,0,1,1.69.68,2.24,2.24,0,0,1,.7,1.67,2.27,2.27,0,0,1-.7,1.67,2.3,2.3,0,0,1-1.69.7,2.2,2.2,0,0,1-1.63-.71,2.29,2.29,0,0,1,0-3.3A2.24,2.24,0,0,1,199.78,243.88Zm-2,8.5h4V272.6h-4Z"/><path class="cls-2" d="M204.74,255.59l7.52-7.38v4.17h6.39V256h-6.39v9.89q0,3.47,2.87,3.47a8.93,8.93,0,0,0,4.55-1.43v3.73a10,10,0,0,1-5,1.3,6.67,6.67,0,0,1-4.57-1.6,4.82,4.82,0,0,1-.94-1.09,5.76,5.76,0,0,1-.63-1.58,17.84,17.84,0,0,1-.25-3.73v-9h-3.52Z"/><path class="cls-2" d="M224.63,243.88a2.36,2.36,0,0,1,1.69.68,2.24,2.24,0,0,1,.7,1.67,2.27,2.27,0,0,1-.7,1.67,2.3,2.3,0,0,1-1.69.7,2.2,2.2,0,0,1-1.63-.71,2.29,2.29,0,0,1,0-3.3A2.24,2.24,0,0,1,224.63,243.88Zm-2,8.5h4V272.6h-4Z"/><path class="cls-2" d="M242.1,252.34a10.54,10.54,0,0,1,7.67,3,10,10,0,0,1,3,7.48,9.51,9.51,0,0,1-3.1,7.26,11,11,0,0,1-7.8,2.89,10.55,10.55,0,0,1-7.6-2.93,10.36,10.36,0,0,1,0-14.73A10.8,10.8,0,0,1,242.1,252.34Zm-.22,3.6a6.33,6.33,0,0,0-4.73,1.89,6.62,6.62,0,0,0-1.84,4.82,6.3,6.3,0,0,0,1.89,4.73,6.67,6.67,0,0,0,4.85,1.83,6.57,6.57,0,0,0,4.83-1.85,6.9,6.9,0,0,0-.08-9.53A6.82,6.82,0,0,0,241.88,255.94Z"/><path class="cls-2" d="M261.26,252.38V255a8,8,0,0,1,6.08-3,6.63,6.63,0,0,1,3.52,1,6.33,6.33,0,0,1,2.47,2.68,12.83,12.83,0,0,1,.85,5.39V272.6h-4V261.08a7.83,7.83,0,0,0-.95-4.42,3.6,3.6,0,0,0-3.16-1.33,5.75,5.75,0,0,0-4.81,2.83V272.6h-4.09V252.38Z"/><path class="cls-2" d="M292.46,260.45V269c0,.69.23,1,.7,1a4.88,4.88,0,0,0,2.26-1.07v2.43a12.34,12.34,0,0,1-2.18,1.2,4.83,4.83,0,0,1-1.73.32c-1.71,0-2.72-.67-3-2a8.7,8.7,0,0,1-5.43,2,4.78,4.78,0,0,1-3.51-1.4,4.73,4.73,0,0,1-1.41-3.5,4.91,4.91,0,0,1,1.38-3.42,9.19,9.19,0,0,1,3.9-2.38l5.12-1.76v-1.08q0-3.65-3.65-3.65c-2.18,0-4.31,1.13-6.37,3.39v-4.37a8.26,8.26,0,0,1,6.7-2.75,7.75,7.75,0,0,1,5.25,1.71,5.5,5.5,0,0,1,1.18,1.46,5,5,0,0,1,.67,1.83A25.6,25.6,0,0,1,292.46,260.45Zm-3.93,8.15v-6l-2.69,1a9.1,9.1,0,0,0-2.88,1.64,2.73,2.73,0,0,0-.85,2.06,2.77,2.77,0,0,0,.8,2,2.84,2.84,0,0,0,2.08.79A5.05,5.05,0,0,0,288.53,268.6Z"/><path class="cls-2" d="M299.05,241.9h4v30.7h-4Z"/><path class="cls-2" d="M355.36,241.9h4.38l-12.41,30.83h-1l-10-25-10.14,25h-.95L312.87,241.9h4.43l8.46,21.16,8.51-21.16h4.16L347,263.06Z"/><path class="cls-2" d="M375.78,262.84H361.56a6.58,6.58,0,0,0,1.95,4.62,6.4,6.4,0,0,0,4.62,1.71,12.05,12.05,0,0,0,7.3-2.46v3.91a13.31,13.31,0,0,1-3.66,1.76,15.37,15.37,0,0,1-4.25.53,9.58,9.58,0,0,1-5.41-1.39,10,10,0,0,1-3.31-3.72,11.49,11.49,0,0,1-1.24-5.42,10.72,10.72,0,0,1,2.62-7.5A8.71,8.71,0,0,1,367,252a8,8,0,0,1,6.41,2.81,11.24,11.24,0,0,1,2.4,7.54Zm-14.13-2.39h10.17a5.55,5.55,0,0,0-1.43-3.69,4.56,4.56,0,0,0-3.42-1.3,4.92,4.92,0,0,0-3.53,1.3A6.44,6.44,0,0,0,361.65,260.45Z"/><path class="cls-2" d="M379.93,241.9h4v11.93a9.23,9.23,0,0,1,5.54-1.89,7.83,7.83,0,0,1,6.28,2.9,11.18,11.18,0,0,1,2.44,7.45,10.45,10.45,0,0,1-2.91,7.77,10.56,10.56,0,0,1-7.79,2.89,21.66,21.66,0,0,1-4.12-.42,14,14,0,0,1-3.44-1Zm4,15.76V268.6a14.47,14.47,0,0,0,4.2.61,5.57,5.57,0,0,0,4.34-1.88,7,7,0,0,0,1.68-4.86,7.44,7.44,0,0,0-1.57-4.9,5.09,5.09,0,0,0-4.1-1.89A7,7,0,0,0,383.93,257.66Z"/><path class="cls-2" d="M415.7,241.9h16.37v3.91h-12v8.57h12v3.91h-12V272.6h-4.4Z"/><path class="cls-2" d="M440.51,252.38V257l.22-.35c1.93-3.12,3.87-4.68,5.8-4.68a7.15,7.15,0,0,1,4.72,2.28l-2.11,3.52a5.92,5.92,0,0,0-3.86-2,4.14,4.14,0,0,0-3.35,1.85,6.94,6.94,0,0,0-1.42,4.37V272.6h-4V252.38Z"/><path class="cls-2" d="M466.75,260.45V269c0,.69.23,1,.7,1a4.88,4.88,0,0,0,2.26-1.07v2.43a13.08,13.08,0,0,1-2.18,1.2,4.83,4.83,0,0,1-1.73.32c-1.71,0-2.72-.67-3-2a8.7,8.7,0,0,1-5.43,2,4.78,4.78,0,0,1-3.51-1.4,4.73,4.73,0,0,1-1.41-3.5,5,5,0,0,1,1.37-3.42,9.32,9.32,0,0,1,3.9-2.38l5.12-1.76v-1.08c0-2.43-1.21-3.65-3.65-3.65q-3.27,0-6.37,3.39v-4.37a8.29,8.29,0,0,1,6.7-2.75,7.76,7.76,0,0,1,5.26,1.71,5.5,5.5,0,0,1,1.18,1.46,5.22,5.22,0,0,1,.67,1.83A25.6,25.6,0,0,1,466.75,260.45Zm-3.94,8.15v-6l-2.68,1a9.29,9.29,0,0,0-2.89,1.64,2.76,2.76,0,0,0-.84,2.06,2.73,2.73,0,0,0,.8,2,2.8,2.8,0,0,0,2.08.79A5,5,0,0,0,462.81,268.6Z"/><path class="cls-2" d="M489.82,257.92V272.6h-4V261.35c0-2.24-.3-3.81-.9-4.69a3.5,3.5,0,0,0-3.14-1.33,4.69,4.69,0,0,0-2.29.57,9.86,9.86,0,0,0-2.39,2V272.6h-4V252.38h4V255q3.06-3,6-3a6.54,6.54,0,0,1,5.95,3.65q3.21-3.7,6.71-3.7a6.17,6.17,0,0,1,4.84,2.16q1.9,2.15,1.9,6.57V272.6h-4v-12a6.21,6.21,0,0,0-1-3.86,3.51,3.51,0,0,0-3-1.34A6.12,6.12,0,0,0,489.82,257.92Z"/><path class="cls-2" d="M525.17,262.84H511a6.62,6.62,0,0,0,1.94,4.62,6.4,6.4,0,0,0,4.62,1.71,12.05,12.05,0,0,0,7.3-2.46v3.91a13.31,13.31,0,0,1-3.66,1.76,15.32,15.32,0,0,1-4.25.53,9.58,9.58,0,0,1-5.41-1.39,10.1,10.1,0,0,1-3.3-3.72,11.38,11.38,0,0,1-1.24-5.42,10.76,10.76,0,0,1,2.61-7.5,8.72,8.72,0,0,1,6.79-2.89,8,8,0,0,1,6.42,2.81,11.29,11.29,0,0,1,2.39,7.54ZM511,260.45h10.17a5.54,5.54,0,0,0-1.42-3.69,4.58,4.58,0,0,0-3.43-1.3,4.92,4.92,0,0,0-3.53,1.3A6.44,6.44,0,0,0,511,260.45Z"/><path class="cls-2" d="M554.08,252.38h4.29L549.44,273h-1.28l-6-14.08L536.29,273H535l-9-20.57h4.3l5.29,12.26,5.17-12.26h3l5.1,12.26Z"/><path class="cls-2" d="M570,252.34a10.53,10.53,0,0,1,7.67,3,10,10,0,0,1,3,7.48,9.51,9.51,0,0,1-3.1,7.26,11,11,0,0,1-7.8,2.89,10.57,10.57,0,0,1-7.6-2.93,9.73,9.73,0,0,1-3-7.33,9.83,9.83,0,0,1,3.09-7.4A10.76,10.76,0,0,1,570,252.34Zm-.22,3.6a6.31,6.31,0,0,0-4.72,1.89,6.62,6.62,0,0,0-1.85,4.82,6.3,6.3,0,0,0,1.89,4.73,6.7,6.7,0,0,0,4.86,1.83,6.55,6.55,0,0,0,4.82-1.85,6.43,6.43,0,0,0,1.88-4.76,6.33,6.33,0,0,0-2-4.77A6.78,6.78,0,0,0,569.73,255.94Z"/><path class="cls-2" d="M589.4,252.38V257l.22-.35q2.89-4.68,5.8-4.68a7.15,7.15,0,0,1,4.72,2.28L598,257.79a5.92,5.92,0,0,0-3.87-2,4.17,4.17,0,0,0-3.35,1.85A7,7,0,0,0,589.4,262V272.6h-4V252.38Z"/><path class="cls-2" d="M602.93,241.9h4v30.7h-4Zm13.16,10.48h4.75l-8.63,9.89L622.6,272.6h-5.37l-10.12-10.32Z"/></g><path class="cls-3" d="M781.27,207.74l51.81-16.37q43-13.59,86.1-27.17c1.29-.41,1.83-.49,1.82,1.23q-.11,20.32,0,40.66a2,2,0,0,1-1.52,2.22q-69,26.81-137.93,53.65a1.23,1.23,0,0,1-.34,0q0-7.41,0-14.82Q781.25,227.46,781.27,207.74Z"/><path class="cls-4" d="M781.27,207.74q0,19.71,0,39.43,0,7.41,0,14.82-13.38-5.17-26.77-10.34Q698.73,230,643,208.34a2,2,0,0,1-1.53-2.23q.07-20.33,0-40.65c0-1.4.23-1.74,1.69-1.27q37.2,11.79,74.44,23.48Z"/><path class="cls-5" d="M781.29,154.39q14.93-3.72,29.87-7.43,29.48-7.26,59-14.51c1.51-.38,1.75,0,1.74,1.42q-.09,16.53,0,33.07a1.82,1.82,0,0,1-1.54,2.13q-43.86,13.26-87.69,26.62a2.26,2.26,0,0,1-1.49.21c0-3,.08-6.08.09-9.12Q781.27,170.58,781.29,154.39Z"/><path class="cls-6" d="M781.29,154.39q0,16.19-.07,32.39c0,3-.06,6.08-.09,9.12a104.9,104.9,0,0,1-10.72-3.08q-39-11.79-78-23.64c-1.32-.4-1.91-.9-1.9-2.44q.13-16.44,0-32.89c0-1.61.43-1.72,1.8-1.38q40.21,9.93,80.45,19.81Z"/><path class="cls-7" d="M781.23,107.69,818.57,99c7.87-1.83,15.74-3.63,23.6-5.5,1.27-.3,1.74-.26,1.73,1.28q-.09,15.75,0,31.5c0,1.06-.18,1.63-1.32,1.94q-30.27,8.22-60.52,16.5a4,4,0,0,1-.85.08Z"/><path class="cls-8" d="M781.23,107.69l0,37.11c-4.66-.94-9.19-2.39-13.77-3.63-15.71-4.26-31.39-8.59-47.11-12.83a2.06,2.06,0,0,1-1.85-2.42q.1-15.42,0-30.83c0-1.75.49-1.91,2-1.56q24.6,5.77,49.22,11.44Z"/><path class="cls-9" d="M826.5,91.08c-2.46.44-4.91.89-7.37,1.32q-18.39,3.16-36.78,6.36a6.79,6.79,0,0,1-2.38,0Q758.45,95,736.92,91.31c-.33-.06-.64-.16-1.46-.38l18.59-3.6,26.18-5a3.72,3.72,0,0,1,1.52-.11l44.72,8.63Z"/><path class="cls-10" d="M106.74,70.73a108.59,108.59,0,0,1,45.18,10.15v21.79Q129.5,91.29,107.8,91.29a51.85,51.85,0,0,0-24,5.38,38.73,38.73,0,0,0-16.28,15.48,44.64,44.64,0,0,0-5.78,22.55q0,18.87,12.58,30.39t33.13,11.52a59.14,59.14,0,0,0,10.81-1,73.94,73.94,0,0,0,12.3-3.71V151.46H110.18V132.84h44.21v50.83a71.57,71.57,0,0,1-21.84,9.92A97.87,97.87,0,0,1,106,197.16a77.07,77.07,0,0,1-35.34-8,60.07,60.07,0,0,1-33.57-54.8,61.53,61.53,0,0,1,8.95-32.73,60.82,60.82,0,0,1,25-22.76A77.82,77.82,0,0,1,106.74,70.73Z"/><path class="cls-10" d="M235.42,72.32V177h59.82v18.62H211.6V72.32Z"/><path class="cls-10" d="M402.92,70.73q19.15,0,34.46,7.9A62.09,62.09,0,0,1,470.86,134a61.89,61.89,0,0,1-33.22,55q-15.48,8.16-34.89,8.16a73.19,73.19,0,0,1-34.81-8.29A61,61,0,0,1,334.81,134a62,62,0,0,1,8.73-31.85A60.73,60.73,0,0,1,367.63,79Q383,70.73,402.92,70.73ZM359.43,134A44,44,0,0,0,365,156.05a38.59,38.59,0,0,0,15.49,15.17,46.32,46.32,0,0,0,22.45,5.39q19,0,31.19-11.91T446.33,134a44.39,44.39,0,0,0-5.51-22.1,38.13,38.13,0,0,0-15.53-15.22,49.74,49.74,0,0,0-45.08,0,37.72,37.72,0,0,0-15.4,15.18A45,45,0,0,0,359.43,134Z"/><path class="cls-10" d="M620,72.32V90.93H576.25V195.58H552.43V90.93H508.66V72.32Z"/></svg>