<svg id="Layer_1" data-name="Layer 1" xmlns="http://www.w3.org/2000/svg" viewBox="0 0 594 259"><defs><style>.cls-1{fill:#0ea879;}.cls-2{fill:#6eccaf;}.cls-3{fill:#06b57b;}.cls-4{fill:#66d1b0;}.cls-5{fill:#0fa573;}.cls-6{fill:#6dccac;}.cls-7{fill:#0bad77;}.cls-8{font-size:148px;fill:#0058a8;font-family:FiraSans-Medium, Fira Sans;font-weight:500;}.cls-9{letter-spacing:-0.01em;}.cls-10{letter-spacing:0em;}.cls-11{font-size:34px;fill:#9c57bc;font-family:LucidaGrande, Lucida Grande;}</style></defs><path class="cls-1" d="M424.73,134.76,458.94,124q28.43-9,56.85-17.94c.86-.27,1.22-.33,1.21.81q-.07,13.43,0,26.85a1.31,1.31,0,0,1-1,1.47q-45.56,17.69-91.08,35.43a.81.81,0,0,1-.22,0q0-4.89,0-9.78Z"/><path class="cls-2" d="M424.73,134.76l0,26q0,4.89,0,9.78-8.85-3.41-17.69-6.83-36.76-14.3-73.56-28.59a1.33,1.33,0,0,1-1-1.48q0-13.41,0-26.84c0-.93.16-1.15,1.12-.84q24.57,7.78,49.16,15.51Z"/><path class="cls-3" d="M424.74,99.53q9.87-2.46,19.73-4.9,19.45-4.8,38.93-9.59c1-.25,1.15,0,1.15.94-.05,7.28,0,14.56,0,21.84a1.19,1.19,0,0,1-1,1.4q-28.95,8.76-57.9,17.58a1.45,1.45,0,0,1-1,.14c0-2,.05-4,.06-6Q424.73,110.23,424.74,99.53Z"/><path class="cls-4" d="M424.74,99.53q0,10.69,0,21.39c0,2,0,4-.06,6a69,69,0,0,1-7.08-2q-25.76-7.8-51.5-15.61c-.88-.26-1.26-.6-1.26-1.61q.09-10.86,0-21.72c0-1.07.29-1.14,1.19-.92q26.55,6.57,53.12,13.09Z"/><path class="cls-5" d="M424.7,68.69,449.36,63c5.2-1.21,10.4-2.4,15.59-3.64.83-.2,1.15-.17,1.14.85,0,6.93,0,13.87,0,20.8,0,.7-.12,1.07-.87,1.28q-20,5.43-40,10.9a3.31,3.31,0,0,1-.55,0Q424.69,80.94,424.7,68.69Z"/><path class="cls-6" d="M424.7,68.69q0,12.25,0,24.51c-3.08-.63-6.08-1.58-9.1-2.4-10.37-2.81-20.73-5.67-31.11-8.47a1.37,1.37,0,0,1-1.22-1.6q.08-10.19,0-20.36c0-1.16.32-1.26,1.32-1q16.25,3.81,32.5,7.56Z"/><path class="cls-7" d="M454.6,57.73l-4.87.86q-12.15,2.1-24.29,4.2a4.36,4.36,0,0,1-1.57,0q-14.21-2.47-28.43-4.91c-.21,0-.42-.1-1-.24,4.31-.84,8.29-1.62,12.27-2.38L424,51.93a2.46,2.46,0,0,1,1-.07l29.53,5.7Z"/><text class="cls-8" transform="translate(34.27 145.15)">g<tspan class="cls-9" x="79.47" y="0">l</tspan><tspan class="cls-10" x="121.65" y="0">ot</tspan></text><text class="cls-11" transform="translate(43.38 226.32)">Multilingual Web Framework</text></svg>